<?xml version="1.0" encoding="UTF-8" standalone="no"?>
<svg width="680px" height="1232px" viewBox="0 0 680 1232" version="1.1" xmlns="http://www.w3.org/2000/svg" xmlns:xlink="http://www.w3.org/1999/xlink">
    <!-- Generator: Sketch 3.8.2 (29753) - http://www.bohemiancoding.com/sketch -->
    <title>iced cup</title>
    <desc>Created with Sketch.</desc>
    <defs></defs>
    <g id="Page-1" stroke="none" stroke-width="1" fill="none" fill-rule="evenodd">
        <g id="ICEd" transform="translate(-1.000000, -1.000000)">
            <g id="take-away-coffee-3">
                <g id="take-away-coffee-3-take-away-coffee-3" transform="translate(0.225859, 0.688701)">
                    <g id="iced-cup">
                        <polygon id="Shape" fill="#FBF8F6" points="575.73384 1205.84813 107.020969 1205.84813 21.799162 49.1743926 660.966442 49.1743926"></polygon>
                        <path d="M107.020969,1231.91965 C97.4159411,1231.91965 89.3656759,1221.79537 88.3939771,1208.49121 L3.16092962,51.8484544 C2.09741408,37.5229128 9.58743044,24.7262697 19.8782455,23.2618176 C30.2608773,21.4788515 39.3739902,32.2067025 40.4261538,46.5320892 L123.932268,1179.77645 L558.821427,1179.77645 L642.326985,46.5320892 C643.391057,32.2067025 652.390095,21.51061 662.874894,23.2618176 C673.167378,24.7262697 680.655725,37.5229128 679.603673,51.8484544 L594.37107,1208.49121 C593.388576,1221.79537 585.338311,1231.91965 575.73384,1231.91965 L107.020969,1231.91965 Z" id="Shape" fill="#E6DBD5"></path>
                        <path d="M3.02953047,49.2538668 C3.02953047,49.2538668 0.758149762,26.6475787 0.774140753,24.7825831 C0.96010561,3.09389351 15.4341739,0.311299459 15.4341739,0.311299459 L671.188734,0.311299459 C671.188734,0.311299459 680.778178,4.95888072 680.774141,24.7825831 C680.773445,28.1967716 679.661195,49.2538668 679.661195,49.2538668 L3.02953047,49.2538668 Z" id="Shape" fill="#E6DBD5"></path>
                    </g>
                </g>
            </g>
        </g>
    </g>
</svg>