<?xml version="1.0" encoding="UTF-8" standalone="no"?>
<svg width="746px" height="1038px" viewBox="0 0 746 1038" version="1.1" xmlns="http://www.w3.org/2000/svg" xmlns:xlink="http://www.w3.org/1999/xlink">
    <!-- Generator: Sketch 3.8.2 (29753) - http://www.bohemiancoding.com/sketch -->
    <title>siphen</title>
    <desc>Created with Sketch.</desc>
    <defs></defs>
    <g id="Page-1" stroke="none" stroke-width="1" fill="none" fill-rule="evenodd">
        <g id="SIPhen">
            <g id="take-away-coffee">
                <g id="take-away-coffee-take-away-coffee">
                    <g id="siphen">
                        <polygon id="Shape" fill="#FBF8F6" points="69.6602 1015.68465 28.3472 22.8698237 596.3082 22.8698237 554.9849 1015.68465"></polygon>
                        <path d="M64.7388,1038 L0.0211,0.534897297 L624.6236,0.534897297 L559.8756,1038 L64.7388,1038 Z M529.4117,993.749405 L588.6334,44.7718656 L36.0118,44.7718656 L95.2017,993.749405 L529.4117,993.749405 Z" id="Shape" fill="#E6DBD5"></path>
                        <path d="M562,612.088073 L573.625965,573.816093 L689.526066,573.816095 C701.520126,573.816095 711.282011,563.037693 711.282011,549.782234 L711.282011,350.264994 C711.282011,337.04024 701.520126,326.262429 689.526066,326.262429 L582.081212,326.262429 L589.479553,288 L689.526066,288 C720.626455,288 745.901626,315.923245 745.901626,350.264994 L745.901626,549.782234 C745.901626,584.134119 720.626455,612.08807 689.526066,612.08807 L562,612.088073 Z" id="Shape" fill="#E6DBD5"></path>
                    </g>
                </g>
            </g>
        </g>
    </g>
</svg>