<?xml version="1.0" encoding="utf-8"?>
<!-- Generator: Adobe Illustrator 17.1.0, SVG Export Plug-In . SVG Version: 6.00 Build 0)  -->
<!DOCTYPE svg PUBLIC "-//W3C//DTD SVG 1.1//EN" "http://www.w3.org/Graphics/SVG/1.1/DTD/svg11.dtd">
<svg version="1.1" id="coffee-milk-bottles" xmlns="http://www.w3.org/2000/svg" xmlns:xlink="http://www.w3.org/1999/xlink"
	 x="0px" y="0px" viewBox="0 0 887.9303 1010" enable-background="new 0 0 887.9303 1010" xml:space="preserve">
<g id="coffee-milk-bottles-coffee-milk-bottles">
	<g id="coffee-milk-bottles-bottle">
		<g>
			<path fill="#F4EDE9" d="M278.3496,86.5708v52.2959c0,69.7212,87.167,278.9663,87.167,331.2627V940.875
				c0,28.8906-23.4253,52.2959-52.3164,52.2959H69.125c-28.8911,0-52.2754-23.4053-52.2754-52.2959V470.1294
				c0-52.2964,87.1255-261.5415,87.1255-331.2627V86.5708"/>
			<path fill="#FBF8F6" d="M278.3496,218.7798c0,0,87.167,199.0532,87.167,251.3496V940.875
				c0,28.8906-23.4253,52.2959-52.3164,52.2959H69.125c-28.8911,0-52.2754-23.4053-52.2754-52.2959V470.1294
				c0-52.2964,87.1255-251.3496,87.1255-251.3496"/>
			<polyline fill="#E3B08D" points="16.8496,783.9453 16.8496,505 365.5166,505 			"/>
			<polyline fill="#E3B08D" points="365.5166,505 365.5166,783.9453 16.8496,783.9453 			"/>
			<g>
				<path fill="#E6DBD5" d="M313.2002,1010H69.125C31.0073,1010,0,978.9922,0,940.875V470.1294
					c0-26.9395,18.4111-83.8589,39.6997-149.7783C61.9536,251.5547,87.146,173.5732,87.146,138.8667V86.5708h33.6792v52.2959
					c0,40.0078-24.9668,117.209-49.0699,191.8408c-18.7402,57.9058-38.0766,117.8047-38.0766,139.4219V940.875
					c0,19.541,15.8843,35.4668,35.4463,35.4668h244.0752c19.562,0,35.4668-15.9258,35.4668-35.4668V470.1294
					c0-21.6172-19.357-81.5161-38.0562-139.4219c-24.1445-74.6318-49.0903-151.833-49.0903-191.8408V86.5708h33.6587v52.2959
					c0,34.7065,25.2129,112.688,47.4463,181.4844c21.3295,65.9194,39.7202,122.8388,39.7202,149.7783V940.875
					C382.3457,978.9922,351.3174,1010,313.2002,1010L313.2002,1010z"/>
			</g>
			<g>
				<polygon fill="#E6DBD5" points="365.5166,521.8291 16.8496,521.8291 16.8496,488.1709 365.5166,488.1709 365.5166,521.8291 				
					"/>
			</g>
			<g>
				<polygon fill="#E6DBD5" points="365.5166,800.7754 16.8496,800.7754 16.8496,767.1172 365.5166,767.1172 365.5166,800.7754 				
					"/>
			</g>
			<g>
				<path fill="#BCB3BE" d="M103.9751,16.8291h174.3745c19.2334,0,34.8506,15.5967,34.8506,34.8711
					c0,19.2539-15.6172,34.8706-34.8506,34.8706H103.9751c-19.2744,0-34.8501-15.6167-34.8501-34.8706
					C69.125,32.4258,84.7007,16.8291,103.9751,16.8291z"/>
			</g>
			<g>
				<g>
					<path fill="#8C7C8E" d="M278.3496,103.3999H103.9751c-28.5005,0-51.6997-23.1992-51.6997-51.6997
						C52.2754,23.1787,75.4746,0,103.9751,0h174.3745c28.501,0,51.6797,23.1787,51.6797,51.7002
						C330.0293,80.2007,306.8506,103.3999,278.3496,103.3999L278.3496,103.3999z M103.9751,33.6587
						c-9.9453,0-18.021,8.0957-18.021,18.0415c0,9.9453,8.0757,18.0415,18.021,18.0415h174.3745
						c9.9253,0,18.021-8.0962,18.021-18.0415c0-9.9458-8.0957-18.0415-18.021-18.0415H103.9751L103.9751,33.6587z"/>
				</g>
			</g>
		</g>
		<g>
			<g>
				<polygon fill="#A37458" points="292.8569,618.4072 89.4677,618.4072 89.4677,584.748 292.8569,584.748 292.8569,618.4072 				
					"/>
			</g>
			<g>
				<polygon fill="#A37458" points="170.8193,689.6289 89.4677,689.6289 89.4677,655.9492 170.8193,655.9492 170.8193,689.6289 				
					"/>
			</g>
			<g>
				<polygon fill="#A37458" points="292.8569,689.6289 231.8281,689.6289 231.8281,655.9492 292.8569,655.9492 292.8569,689.6289 
									"/>
			</g>
		</g>
	</g>
	<g id="coffee-milk-bottles-pot">
		<path fill="#FBF8F6" d="M543.9594,550.1655c0,0,1.1504,38.6519-50.5488,82.4203
			c-131.8804,111.6397-83.4477,359.3106,72.0215,360.585h76.873h3.5547h76.8711c155.4492-1.2744,203.8828-248.9453,72.0235-360.585
			c-51.7207-43.7685-50.6328-82.4203-50.6328-82.4203"/>
		<polyline fill="#F4EDE9" points="543.9594,550.1655 493.4106,632.5859 794.7544,632.5859 744.1216,550.1655 		"/>
		<g>
			<path fill="#E6DBD5" d="M645.8598,1010h-80.4277c-67.9531-0.5547-124.1328-44.2617-150.4346-116.8799
				c-28.8501-79.708-20.0146-199.2793,67.5225-273.3974c43.8496-37.0899,44.6094-68.0572,44.6094-69.3516
				c0.0625-9.1646,7.4804-16.7676,16.666-16.8701c0.0605,0,0.123,0,0.1855,0c9.0821,0,16.541,7.0683,16.8282,16.1714
				c0.123,4.788-0.2461,48.145-56.5489,95.7552c-71.8994,60.8858-83.4067,164.9229-57.5976,236.2266
				c21.5966,59.7344,64.9531,94.2353,118.914,94.6875h157.1543c53.7969-0.4522,97.1543-34.9531,118.75-94.6875
				c25.8086-71.2832,14.3223-175.3203-57.5976-236.2266c-56.3028-47.6103-56.7129-90.9467-56.5899-95.7347
				c0.2676-9.2876,8.0137-16.9527,17.3008-16.336c9.2891,0.2466,16.625,8.0137,16.3574,17.3018
				c0.0215,0.9863,0.8008,31.9526,44.6719,69.064c87.5586,74.1386,96.3731,193.6894,67.5234,273.3974
				C846.8442,965.7598,790.686,1009.4453,722.854,1010H645.8598L645.8598,1010z"/>
		</g>
		<g>
			<path fill="#BCB3BE" d="M622.0239,550.1655h122.0977c18.0625,0,32.7753-14.7334,32.7753-32.7544l0,0
				c0-18.021-14.7128-32.7544-32.7753-32.7544H547.5551c-18.041,0-32.7539,14.7334-32.7539,32.7544l0,0
				c0,18.021,14.7129,32.7544,32.7539,32.7544h77.8594"/>
			<path fill="#8C7C8E" d="M744.1216,567.0156H547.5551c-27.3496,0-49.5839-22.2544-49.5839-49.6045
				c0-27.3501,22.2343-49.5835,49.5839-49.5835h196.5665c27.3515,0,49.6054,22.2334,49.6054,49.5835
				C793.727,544.7612,771.4731,567.0156,744.1216,567.0156L744.1216,567.0156z M622.0239,533.3364h122.0977
				c8.7753,0,15.9257-7.1303,15.9257-15.9253c0-8.7739-7.1504-15.9248-15.9257-15.9248H547.5551
				c-8.7734,0-15.9238,7.1509-15.9238,15.9248c0,8.795,7.1504,15.9253,15.9238,15.9253H622.0239L622.0239,533.3364z"/>
		</g>
		<g>
			<path fill="#E3B08D" d="M695.5044,698.2998h150.5175c31.3164,62.3447,32.3243,137.6543,8.3848,196.5869H695.5044
				c-18.0411,0-32.7539-14.7539-32.7539-32.7744V731.0742C662.7505,713.0742,677.4633,698.2998,695.5044,698.2998z"/>
			<path fill="#E6DBD5" d="M865.7485,911.7168H695.5044c-27.3496,0-49.584-22.2539-49.584-49.6045V731.0742
				c0-27.3701,22.2344-49.6035,49.584-49.6035h160.8945l4.6641,9.2676c32.2011,64.1113,35.6328,144.7637,8.9609,210.4785
				L865.7485,911.7168L865.7485,911.7168z M695.5044,715.1289c-8.7735,0-15.9258,7.1504-15.9258,15.9453v131.0381
				c0,8.7744,7.1523,15.9248,15.9258,15.9248h147.2304c17.6719-51.6992,14.9395-112.3183-7.3984-162.9082H695.5044
				L695.5044,715.1289z"/>
		</g>
	</g>
</g>
</svg>
