<?xml version="1.0" encoding="UTF-8" standalone="no"?>
<svg width="596px" height="1010px" viewBox="0 0 596 1010" version="1.1" xmlns="http://www.w3.org/2000/svg" xmlns:xlink="http://www.w3.org/1999/xlink" xmlns:sketch="http://www.bohemiancoding.com/sketch/ns">
    <!-- Generator: Sketch 3.5.1 (25234) - http://www.bohemiancoding.com/sketch -->
    <title>milk</title>
    <desc>Created with Sketch.</desc>
    <defs></defs>
    <g id="Page-1" stroke="none" stroke-width="1" fill="none" fill-rule="evenodd" sketch:type="MSPage">
        <g id="milk" sketch:type="MSLayerGroup">
            <g id="milk-milk" sketch:type="MSShapeGroup">
                <g id="milk-color" transform="translate(14.000000, 16.000000)">
                    <path d="M461.6977,153.9976 C444.8481,130.6958 434.2866,116.0444 428.7583,108.2979 L119.6269,108.2979 L148.7241,152.4775 C172.8066,189.1357 202.9722,234.9795 213.8218,251.521 L218.5473,251.521 L531.8306,251.521 C512.8638,224.8486 484.4243,185.478 461.6977,153.9976 L461.6977,153.9976 Z" id="Shape" fill="#FFFFFF"></path>
                    <path d="M198.2661,271.8433 L189.6772,977.1709 L563.3931,977.1709 L563.3931,271.8433 L198.2661,271.8433 L198.2661,271.8433 Z" id="Shape" fill="#FFFFFF"></path>
                    <path d="M110.5444,0.8291 L110.5444,87.9546 L455.5952,87.9546 L455.5952,0.8291 L110.5444,0.8291 L110.5444,0.8291 Z" id="Shape" fill="#FFFFFF"></path>
                    <path d="M204.7388,268.3296 L88.4136,91.4482 L437.4302,91.4482 C437.4302,91.4482 458.5337,120.894 475.3423,144.1343 L477.8901,147.6689 C500.1645,178.5327 527.2681,216.0542 545.5356,241.7397 L564.4399,268.3296 L204.7388,268.3296 L204.7388,268.3296 Z" id="Shape" fill="#FBF8F6"></path>
                    <path d="M189.6772,977.1709 L563.3931,977.1709 L563.3931,271.8433 L198.2661,271.8433" id="Shape" fill="#FBF8F6"></path>
                    <g id="Group" transform="translate(208.000000, 423.000000)">
                        <path d="M343.7622,301.5889 C233.0259,208.2363 112.0981,394.9404 1.3623,301.5889 L1.3623,27.0195 C112.0981,120.3916 233.0259,-66.3525 343.7622,27.0195 L343.7622,301.5889 L343.7622,301.5889 Z" id="Shape" fill="#BCB3BE"></path>
                        <path d="M237,75 C233.529775,69.6018722 220.999999,73 207,55 C193.000001,37 215,8 215,8 L349,8 L341,158 C341,158 330.492985,117.993278 301,122 C278.89613,125.002886 242.84941,140.421014 224,122 C206.879905,105.268998 246,89 237,75 Z" id="Rectangle-3" fill="#8C7C8E"></path>
                        <path d="M5.99999996,259 C6.00000031,233 23.9999996,235 32.9999996,206 C38.4874222,188.318305 -3.96042992e-07,158 -3.96042992e-07,158 L142,163 L136,321 C136,321 129.492984,293.993278 99.9999996,298 C77.8961297,301.002886 66.9999996,308 41.9999996,301 C30.376194,297.745334 5.9999996,285 5.99999996,259 Z" id="Rectangle-3" fill="#8C7C8E" transform="translate(71.000000, 239.500000) scale(-1, -1) translate(-71.000000, -239.500000) "></path>
                        <path d="M13,93.806655 C13.0000002,76.4482775 24.9914029,77.7835373 30.9871044,58.42227 C34.6427653,46.6174417 37.9282281,39.0853594 61.6318015,29.714184 C85.3353748,20.3430087 121.541568,51.2346871 131.062937,77.6843384 C140.584307,104.13399 112.930701,110.927797 93.2827974,113.602805 C78.5574411,115.607622 53.6375325,126.52052 36.982806,121.847111 C29.2391539,119.674199 12.9999998,111.165033 13,93.806655 Z" id="Rectangle-3" fill="#8C7C8E" transform="translate(73.000000, 75.500000) scale(-1, -1) translate(-73.000000, -75.500000) "></path>
                        <path d="M190.429732,221.557073 C182.429732,189.557073 183.429733,169.557073 206.429733,158.207726 C220.054595,151.48454 213.429735,206.557073 262.429735,202.557073 C311.429735,198.557072 312.39257,250.165846 287.429735,253.557073 C268.72104,256.098668 272.060075,280.933434 250.900098,275.008745 C241.06172,272.254047 198.429732,253.557073 190.429732,221.557073 Z" id="Rectangle-3" fill="#8C7C8E" transform="translate(244.714866, 216.778537) scale(-1, -1) translate(-244.714866, -216.778537) "></path>
                    </g>
                    <path d="M455.5952,0.8291 L110.5444,0.8291 L110.5444,87.9546 L455.5952,87.9546 L455.5952,0.8291 L455.5952,0.8291 Z" id="Shape" fill="#F6F1ED"></path>
                    <path d="M198.0405,264.4663 C182.7314,241.1646 113.3188,135.751 100.5376,116.2915 C87.7358,135.751 15.6723,242.9316 0.3432,266.2744" id="Shape" fill="#F4EDE9"></path>
                    <path d="M198.2046,271.8433 L98.0097,271.8433 L2.8296,271.8433 L2.8296,977.1709 L198.2046,977.1709 L198.2046,271.8433 L198.2046,271.8433 Z" id="Shape" fill="#F4EDE9"></path>
                </g>
                <g id="milk-line">
                    <g id="Group" transform="translate(196.000000, 421.000000)">
                        <path d="M369.7622,319.5889 C259.0259,226.2363 138.0981,412.9404 27.3623,319.5889 L27.3623,45.0195 C138.0981,138.3916 259.0259,-48.3525 369.7622,45.0195 L369.7622,319.5889 L369.7622,319.5889 Z" id="Shape"></path>
                        <path d="M93.4463,79.7466 C64.021,79.7466 34.5337,71.4448 6.3413,47.6904 C-0.7481,41.6904 -1.6524,31.0874 4.3276,23.9775 C10.3276,16.8682 20.9306,15.9229 28.0405,21.9639 C76.1035,62.4854 127.9888,44.6494 187.9897,23.9985 C248.896,3.0186 317.9184,-20.6943 380.6118,32.1357 C387.7007,38.1152 388.605,48.7593 382.6255,55.8691 C376.6255,62.979 366.0014,63.8833 358.9126,57.8828 C310.8696,17.3613 259.0054,35.1768 198.9419,55.8281 C165.4477,67.356 129.4682,79.7466 93.4463,79.7466 L93.4463,79.7466 L93.4463,79.7466 Z" id="Shape" fill="#E6DBD5"></path>
                        <path d="M89.4394,363.2949 C61.3496,363.2949 33.3008,355.1787 6.3413,332.4726 C-0.7481,326.4726 -1.6524,315.8485 4.3276,308.7393 C10.3276,301.6699 20.9306,300.7246 28.0405,306.7256 C75.7749,346.959 127.4751,327.0068 187.394,303.8896 C248.4233,280.3408 317.6304,253.6279 380.6118,306.7256 C387.7007,312.7256 388.605,323.3486 382.6255,330.4385 C376.6255,337.5274 366.0014,338.4727 358.9126,332.4727 C311.1372,292.1974 259.4165,312.1915 199.5386,335.2872 C164.6059,348.7676 127.0024,363.2949 89.4394,363.2949 L89.4394,363.2949 L89.4394,363.2949 Z" id="Shape" fill="#E6DBD5"></path>
                    </g>
                    <path d="M594.2212,1010 L203.6772,1010 L203.6772,976.3213 L560.563,976.3213 L560.563,304.6729 L212.2661,304.6729 L212.2661,271.0142 L594.2212,271.0142 L594.2212,1010 L594.2212,1010 Z" id="Shape" fill="#E6DBD5"></path>
                    <path d="M486.4243,120.7842 L107.7153,120.7842 L107.7153,0 L486.4243,0 L486.4243,120.7842 L486.4243,120.7842 L486.4243,120.7842 Z M141.374,87.105 L452.7661,87.105 L452.7661,33.6587 L141.374,33.6587 L141.374,87.105 L141.374,87.105 L141.374,87.105 Z" id="Shape" fill="#E6DBD5"></path>
                    <path d="M567.4878,292.4053 C557.4604,277.1787 512.1919,214.5264 479.1499,168.7646 C455.6431,136.2778 443.313,119.1611 441.3208,116.0991 L469.5337,97.749 C471.3413,100.5029 488.3764,124.0928 506.438,149.0591 C539.6655,195.0669 585.1802,258.0688 595.5981,273.8911 L567.4878,292.4053 L567.4878,292.4053 L567.4878,292.4053 Z" id="Shape" fill="#E6DBD5"></path>
                    <path d="M28.4189,291.5215 L0.2671,273.0283 C8.3633,260.7397 32.1997,225.1499 54.8237,191.3682 C75.105,161.0796 94.4204,132.2295 100.4619,123.0444 L114.5581,101.6533 L226.0952,271.2402 L197.9643,289.7134 L114.4551,162.8057 C105.7632,175.813 94.4204,192.7241 82.79,210.1084 C60.228,243.7666 36.4741,279.2544 28.4189,291.5215 L28.4189,291.5215 L28.4189,291.5215 Z" id="Shape" fill="#E6DBD5"></path>
                    <path d="M229.0337,1010 L0,1010 L0,271.0142 L229.0337,271.0142 L229.0337,1010 L229.0337,1010 L229.0337,1010 Z M33.6792,976.3213 L195.355,976.3213 L195.355,304.6729 L33.6792,304.6729 L33.6792,976.3213 L33.6792,976.3213 L33.6792,976.3213 Z" id="Shape" fill="#E6DBD5"></path>
                </g>
            </g>
        </g>
    </g>
</svg>