<?xml version="1.0" encoding="utf-8"?>
<!-- Generator: Adobe Illustrator 17.1.0, SVG Export Plug-In . SVG Version: 6.00 Build 0)  -->
<!DOCTYPE svg PUBLIC "-//W3C//DTD SVG 1.1//EN" "http://www.w3.org/Graphics/SVG/1.1/DTD/svg11.dtd">
<svg version="1.1" id="milk" xmlns="http://www.w3.org/2000/svg" xmlns:xlink="http://www.w3.org/1999/xlink" x="0px" y="0px"
	 viewBox="0 0 595.5981 1010" enable-background="new 0 0 595.5981 1010" xml:space="preserve">
<g id="milk-milk">
	<g id="milk-color">
		<path fill="#FFFFFF" d="M475.6977,169.9976c-16.8496-23.3018-27.4111-37.9532-32.9394-45.6997H133.6269l29.0972,44.1796
			c24.0825,36.6582,54.2481,82.502,65.0977,99.0435h4.7255h313.2833C526.8638,240.8486,498.4243,201.478,475.6977,169.9976z"/>
		<path fill="#FFFFFF" d="M212.2661,287.8433l-8.5889,705.3276c18.4727,0,355.2012,0,373.7159,0c0-19.2744,0-686.0737,0-705.3276
			C560.2348,287.8433,212.2661,287.8433,212.2661,287.8433z"/>
		<path fill="#FFFFFF" d="M124.5444,16.8291c0,12.8018,0,74.3032,0,87.1255c18.5352,0,326.5987,0,345.0508,0
			c0-12.8223,0-74.3237,0-87.1255C451.1431,16.8291,143.0796,16.8291,124.5444,16.8291z"/>
		<path fill="#FBF8F6" d="M218.7388,284.3296L102.4136,107.4482h349.0166c0,0,21.1035,29.4458,37.9121,52.6861l2.5478,3.5346
			c22.2744,30.8638,49.378,68.3853,67.6455,94.0708l18.9043,26.5899H218.7388z"/>
		<path fill="#FBF8F6" d="M203.6772,993.1709c18.4727,0,355.2012,0,373.7159,0c0-19.2744,0-686.0737,0-705.3276
			c-17.1583,0-365.127,0-365.127,0"/>
		<g>
			<path fill="#E3B08D" d="M565.7622,740.5889c-110.7363-93.3526-231.6641,93.3515-342.3999,0c0-91.5235,0-183.0464,0-274.5694
				c110.7358,93.3721,231.6636-93.372,342.3999,0C565.7622,557.5425,565.7622,649.0654,565.7622,740.5889z"/>
			<path fill="#F4C7B0" d="M472.5132,596.9131c0,42.125-34.1319,76.2558-76.2764,76.2558
				c-42.1035,0-76.2759-34.1308-76.2759-76.2558c0-42.124,34.1724-76.2754,76.2759-76.2754
				C438.3813,520.6377,472.5132,554.7891,472.5132,596.9131z"/>
		</g>
		<path fill="#F6F1ED" d="M469.5952,16.8291c-18.4521,0-326.5156,0-345.0508,0c0,12.8018,0,74.3032,0,87.1255
			c18.5352,0,326.5987,0,345.0508,0C469.5952,91.1323,469.5952,29.6309,469.5952,16.8291z"/>
		<path fill="#F4EDE9" d="M212.0405,280.4663c-15.3091-23.3017-84.7217-128.7153-97.5029-148.1748
			C101.7358,151.751,29.6723,258.9316,14.3432,282.2744"/>
		<path fill="#F4EDE9" d="M212.2046,287.8433H112.0097H16.8296c0,0,0,686.0532,0,705.3276c17.4043,0,177.9707,0,195.375,0
			C212.2046,973.8965,212.2046,287.8433,212.2046,287.8433z"/>
	</g>
	<g id="milk-line">
		<g>
			<path fill="none" d="M565.7622,740.5889c-110.7363-93.3526-231.6641,93.3515-342.3999,0c0-91.5235,0-183.0464,0-274.5694
				c110.7358,93.3721,231.6636-93.372,342.3999,0C565.7622,557.5425,565.7622,649.0654,565.7622,740.5889z"/>
			<g>
				<path fill="#E6DBD5" d="M289.4463,500.7466c-29.4253,0-58.9126-8.3018-87.105-32.0562c-7.0894-6-7.9937-16.603-2.0137-23.7129
					c6-7.1093,16.603-8.0546,23.7129-2.0136c48.063,40.5215,99.9483,22.6855,159.9492,2.0346
					c60.9063-20.9799,129.9287-44.6928,192.6221,8.1372c7.0889,5.9795,7.9932,16.6236,2.0137,23.7334
					c-6,7.1099-16.6241,8.0142-23.7129,2.0137c-48.043-40.5215-99.9072-22.706-159.9707-2.0547
					C361.4477,488.356,325.4682,500.7466,289.4463,500.7466L289.4463,500.7466z"/>
			</g>
			<g>
				<path fill="#E6DBD5" d="M285.4394,784.2949c-28.0898,0-56.1386-8.1162-83.0981-30.8223c-7.0894-6-7.9937-16.6241-2.0137-23.7333
					c6-7.0694,16.603-8.0147,23.7129-2.0137c47.7344,40.2334,99.4346,20.2812,159.3535-2.836
					c61.0293-23.5488,130.2364-50.2617,193.2178,2.836c7.0889,6,7.9932,16.623,2.0137,23.7129
					c-6,7.0889-16.6241,8.0342-23.7129,2.0342c-47.7754-40.2753-99.4961-20.2812-159.374,2.8145
					C360.6059,769.7676,323.0024,784.2949,285.4394,784.2949L285.4394,784.2949z"/>
			</g>
			<g>
				<path fill="#A37458" d="M396.2368,689.998c-51.3301,0-93.105-41.7539-93.105-93.0849c0-51.3301,41.7749-93.105,93.105-93.105
					c51.3506,0,93.1055,41.7749,93.1055,93.105C489.3423,648.2441,447.5874,689.998,396.2368,689.998L396.2368,689.998z
					 M396.2368,537.4873c-32.7744,0-59.4473,26.6514-59.4473,59.4258c0,32.7549,26.6729,59.4267,59.4473,59.4267
					c32.7754,0,59.4473-26.6718,59.4473-59.4267C455.6841,564.1387,429.0122,537.4873,396.2368,537.4873L396.2368,537.4873z"/>
			</g>
		</g>
		<g>
			<polygon fill="#E6DBD5" points="594.2212,1010 203.6772,1010 203.6772,976.3213 560.563,976.3213 560.563,304.6729 
				212.2661,304.6729 212.2661,271.0142 594.2212,271.0142 594.2212,1010 			"/>
		</g>
		<g>
			<path fill="#E6DBD5" d="M486.4243,120.7842h-378.709V0h378.709V120.7842L486.4243,120.7842z M141.374,87.105h311.3921V33.6587
				H141.374V87.105L141.374,87.105z"/>
		</g>
		<g>
			<path fill="#E6DBD5" d="M567.4878,292.4053c-10.0274-15.2266-55.2959-77.8789-88.3379-123.6407
				c-23.5068-32.4868-35.8369-49.6035-37.8291-52.6655l28.2129-18.3501c1.8076,2.7539,18.8427,26.3438,36.9043,51.3101
				c33.2275,46.0078,78.7422,109.0097,89.1601,124.832L567.4878,292.4053L567.4878,292.4053z"/>
		</g>
		<g>
			<path fill="#E6DBD5" d="M28.4189,291.5215L0.2671,273.0283c8.0962-12.2886,31.9326-47.8784,54.5566-81.6601
				c20.2813-30.2886,39.5967-59.1387,45.6382-68.3238l14.0962-21.3911l111.5371,169.5869l-28.1309,18.4732l-83.5092-126.9077
				c-8.6919,13.0073-20.0347,29.9184-31.6651,47.3027C60.228,243.7666,36.4741,279.2544,28.4189,291.5215L28.4189,291.5215z"/>
		</g>
		<g>
			<path fill="#E6DBD5" d="M229.0337,1010H0V271.0142h229.0337V1010L229.0337,1010z M33.6792,976.3213H195.355V304.6729H33.6792
				V976.3213L33.6792,976.3213z"/>
		</g>
	</g>
</g>
</svg>
