<?xml version="1.0" encoding="utf-8"?>
<!-- Generator: Adobe Illustrator 17.1.0, SVG Export Plug-In . SVG Version: 6.00 Build 0)  -->
<!DOCTYPE svg PUBLIC "-//W3C//DTD SVG 1.1//EN" "http://www.w3.org/Graphics/SVG/1.1/DTD/svg11.dtd">
<svg version="1.1" id="cezve" xmlns="http://www.w3.org/2000/svg" xmlns:xlink="http://www.w3.org/1999/xlink" x="0px" y="0px"
	 viewBox="0 0 1009.9984 920.0708" enable-background="new 0 0 1009.9984 920.0708" xml:space="preserve">
<g id="cezve-cezve">
	<g>
		<path fill="#8C7C8E" d="M627.1582,448.895c-3.3555,0-6.75-0.999-9.6846-3.0752l-103.9473-73.4981H328.4741
			c-9.3047,0-16.832-7.5273-16.832-16.832c0-9.3047,7.5273-16.8115,16.832-16.8115h190.4033c3.4942,0,6.8687,1.0781,9.7241,3.0742
			l108.2793,76.5928c7.6075,5.331,9.4248,15.8535,4.0332,23.4414C637.6406,446.4184,632.4287,448.895,627.1582,448.895
			L627.1582,448.895z"/>
	</g>
	<g>
		<path fill="#BCB3BE" d="M55.8672,405.5073h233.0727c21.5039,0,38.9951-17.5117,38.9951-39.0957v-26.2559
			c0-21.6045-17.4912-39.0752-38.9951-39.0752H55.8672c-21.5245,0-39.0352,17.4707-39.0352,39.0752v26.2559
			C16.832,387.9956,34.3427,405.5073,55.8672,405.5073z"/>
		<path fill="#8C7C8E" d="M288.9399,422.3588H55.8672C25.0581,422.3588,0,397.2602,0,366.4116v-26.2559
			c0-30.8096,25.0581-55.9072,55.8672-55.9072h233.0727c30.7886,0,55.8272,25.0976,55.8272,55.9072v26.2559
			C344.7671,397.2602,319.7285,422.3588,288.9399,422.3588L288.9399,422.3588z M55.8672,317.9126
			c-12.2398,0-22.2032,9.9834-22.2032,22.2431v26.2559c0,12.2802,9.9634,22.2636,22.2032,22.2636h233.0727
			c12.2197,0,22.1631-9.9834,22.1631-22.2636v-26.2559c0-12.2597-9.9434-22.2431-22.1631-22.2431H55.8672L55.8672,317.9126z"/>
	</g>
	<polygon fill="#A37458" points="915.0195,903.2192 597.0078,903.2192 518.8774,805.8208 624.8808,510.9516 624.8808,424.5747 
		624.8808,311.7026 887.0459,311.7026 887.0459,510.9516 993.1699,805.8208 	"/>
	<g>
		<g>
			<path fill="#F4EDE9" d="M677.7734,226.7836c-7.5469,0-14.3965-5.1113-16.3125-12.7587
				c-2.2558-9.045,3.2344-18.1495,12.2393-20.3858c7.8672-1.9971,23.2607-16.1338,23.3408-39.9736
				c0-0.7588-0.3389-8.2862-12.2988-20.2061c-25.1983-25.1982-46.7227-53.4316-33.9844-89.292
				c11.8613-33.2646,38.5166-47.8408,79.2285-43.3681c0.9785,0.0996,1.8174,0.2002,2.5156,0.2402
				c8.0469-0.3994,15.6739,4.5723,17.7305,12.6582c2.2568,9.0254-3.1738,18.1699-12.1992,20.4863
				c-3.793,0.958-7.1485,0.5586-11.7207,0.0801c-21.6436-2.3965-36.4395,0.3389-43.8262,21.1641
				c-4.6934,13.1582-1.918,26.2373,26.0566,54.1904c14.295,14.2959,22.1622,29.9502,22.1622,44.1065
				c-0.0997,37.8369-24.918,66.5898-48.8379,72.54C680.5088,226.6245,679.1113,226.7836,677.7734,226.7836L677.7734,226.7836z"/>
		</g>
		<g>
			<path fill="#F4EDE9" d="M803.6045,226.7836c-7.5479,0-14.4366-5.1113-16.3526-12.7783
				c-2.2168-9.0254,3.2735-18.1699,12.2989-20.4062c7.8476-1.9571,23.2421-16.0938,23.3418-39.9336
				c0-0.7588-0.3399-8.2862-12.2998-20.2061c-25.2178-25.1582-46.8018-53.3916-33.9639-89.332
				c11.7812-33.2246,38.5762-47.8408,79.209-43.3281c0.9785,0.0996,1.8564,0.2002,2.5351,0.2402
				c8.0274-0.5195,15.6944,4.5723,17.751,12.6982c2.2559,9.0049-3.2148,18.1504-12.2197,20.4463
				c-3.8731,0.958-7.1875,0.5586-11.7207,0.0801c-21.584-2.3564-36.42,0.3194-43.8477,21.1641
				c-4.6914,13.1787-1.956,26.2763,26.0567,54.1904c14.2968,14.2959,22.164,29.9502,22.164,44.1065
				c-0.1601,37.8769-24.9785,66.5898-48.8984,72.5595C806.2998,226.6245,804.9219,226.7836,803.6045,226.7836L803.6045,226.7836z"/>
		</g>
	</g>
	<rect x="627.1582" y="443.4633" fill="#E3B08D" width="259.8877" height="67.4883"/>
	<g>
		<path fill="#7A5742" d="M875.5449,527.7631H636.3623c-9.2842,0-16.8115-7.5273-16.8115-16.8115
			c0-9.3047,7.5273-16.8525,16.8115-16.8525h239.1826c9.3047,0,16.8516,7.5478,16.8516,16.8525
			C892.3965,520.2358,884.8496,527.7631,875.5449,527.7631L875.5449,527.7631z"/>
	</g>
	<g>
		<path fill="#7A5742" d="M875.5449,460.2954H636.3623c-9.2842,0-16.8115-7.5469-16.8115-16.8321
			c0-9.3037,7.5273-16.832,16.8115-16.832h239.1826c9.3047,0,16.8516,7.5283,16.8516,16.832
			C892.3965,452.7485,884.8496,460.2954,875.5449,460.2954L875.5449,460.2954z"/>
	</g>
	<g>
		<path fill="#7A5742" d="M915.0195,920.0708H597.0078c-5.1309,0-9.9434-2.3155-13.1582-6.3086l-78.1104-97.3985
			c-3.6538-4.5918-4.6718-10.7226-2.7153-16.2324l105.0249-292.1348V311.7026c0-9.3047,7.5273-16.832,16.832-16.832h262.1651
			c9.2842,0,16.832,7.5273,16.832,16.832v196.2939l105.125,292.1143c1.9766,5.5303,0.9785,11.6611-2.7158,16.2529l-78.1299,97.3985
			C924.9433,917.7553,920.1308,920.0708,915.0195,920.0708L915.0195,920.0708z M605.0547,886.4067h301.8984l67.1875-83.7803
			L871.1914,516.6215c-0.6582-1.8164-0.9981-3.7529-0.9981-5.6699v-182.417H641.7129v182.417c0,1.917-0.3184,3.8535-0.9785,5.6699
			L537.9062,802.6264L605.0547,886.4067L605.0547,886.4067z"/>
	</g>
</g>
</svg>
