<?xml version="1.0" encoding="utf-8"?>
<!-- Generator: Adobe Illustrator 17.1.0, SVG Export Plug-In . SVG Version: 6.00 Build 0)  -->
<!DOCTYPE svg PUBLIC "-//W3C//DTD SVG 1.1//EN" "http://www.w3.org/Graphics/SVG/1.1/DTD/svg11.dtd">
<svg version="1.1" id="coffee-pot-empty" xmlns="http://www.w3.org/2000/svg" xmlns:xlink="http://www.w3.org/1999/xlink" x="0px"
	 y="0px" viewBox="0 0 1010.0013 878.6758" enable-background="new 0 0 1010.0013 878.6758" xml:space="preserve">
<g id="coffee-pot-empty-coffee-pot-empty">
	<path fill="#BCB3BE" d="M199.9473,107.6538c-42.833-0.0718-80.4063-25.6343-96.0435-65.1079L94.7803,19.521h579.7041v88.1328
		H204.0981V90.8247l-0.0205,16.8291h-2.1577H199.9473z"/>
	<g>
		<path fill-rule="evenodd" clip-rule="evenodd" fill="#FBF8F6" d="M677.1768,185.584
			c112.9247,76.1221,187.2587,205.2393,187.2587,351.6367c0,130.3193-58.8925,246.8809-151.4531,324.626H168.2515
			C75.6904,784.1016,16.8291,667.54,16.8291,537.2207c0-146.3974,74.314-275.5146,187.2588-351.6367H677.1768z"/>
		<path fill="#E6DBD5" d="M712.9824,878.6758H168.2515c-3.9659,0-7.7984-1.3965-10.8291-3.9453
			C57.3818,790.708,0,667.6836,0,537.2207c0-146.7778,72.7725-283.4463,194.6768-365.5889
			c2.7841-1.8803,6.0517-2.8769,9.4111-2.8769h473.0889c3.3603,0,6.6269,0.9966,9.4111,2.8769
			c121.9043,82.1631,194.6777,218.8316,194.6777,365.5889c0,130.4531-57.3926,253.4766-157.4531,337.5098
			C720.7813,877.2793,716.9492,878.6758,712.9824,878.6758L712.9824,878.6758z M174.4468,845.0176h532.3403
			c89.5713-77.5098,140.8086-189.334,140.8086-307.7969c0-133.8428-65.5488-258.6133-175.6172-334.7969H209.2866
			C99.2187,278.5972,33.6689,403.3574,33.6689,537.2207C33.6689,655.6934,84.896,767.5186,174.4468,845.0176L174.4468,845.0176z"/>
	</g>
	<g>
		<path fill="#8C7C8E" d="M201.0161,127.1748C137.4287,127.062,85.1431,80.4683,77.9507,18.7813
			c-0.5547-4.7774,0.9555-9.5547,4.1509-13.1509C85.2969,2.0552,89.8691,0,94.6772,0h582.4996
			c9.2978,0,16.8398,7.5313,16.8398,16.8296v73.9951c0,9.2984-7.542,16.8291-16.8398,16.8291
			c-9.2979,0-16.8291-7.5307-16.8291-16.8291v-57.166h-544.67c12.1241,35.0967,45.4434,59.7754,83.982,59.8477l4.1508-0.0616
			c9.3394-0.5859,17.0552,7.0479,17.3018,16.3462c0.2671,9.2984-7.0478,17.0449-16.3462,17.3018L201.0161,127.1748
			L201.0161,127.1748z"/>
	</g>
	<g>
		<g>
			<path fill="#E6DBD5" d="M330.2354,536.9336H203.667c-9.2983,0-16.8399-7.541-16.8399-16.8398
				c0-9.2989,7.5416-16.8291,16.8399-16.8291h126.5684c9.2983,0,16.8295,7.5302,16.8295,16.8291
				C347.0649,529.3926,339.5337,536.9336,330.2354,536.9336L330.2354,536.9336z M330.2354,464.6128H239.832
				c-9.2978,0-16.8291-7.5312-16.8291-16.8291c0-9.2983,7.5313-16.8398,16.8291-16.8398h90.4034
				c9.2983,0,16.8295,7.5415,16.8295,16.8398C347.0649,457.0816,339.5337,464.6128,330.2354,464.6128L330.2354,464.6128z
				 M330.2354,392.292H203.667c-9.2983,0-16.8399-7.541-16.8399-16.8394c0-9.2983,7.5416-16.8291,16.8399-16.8291h126.5684
				c9.2983,0,16.8295,7.5308,16.8295,16.8291C347.0649,384.751,339.5337,392.292,330.2354,392.292L330.2354,392.292z
				 M330.2354,319.9512H239.832c-9.2978,0-16.8291-7.5313-16.8291-16.8291c0-9.2984,7.5313-16.8399,16.8291-16.8399h90.4034
				c9.2983,0,16.8295,7.5415,16.8295,16.8399C347.0649,312.4199,339.5337,319.9512,330.2354,319.9512L330.2354,319.9512z"/>
		</g>
	</g>
	<g>
		<path fill="#BCB3BE" d="M204.0879,110.3457h473.0889v-0.1333h80.4072l1.9209,0.1333
			c86.3652,4.5928,149.2949,41.4668,188.7685,110.5718c36.3916,63.7212,50.6934,154.5351,42.8438,272.4531h-0.0508
			c-2.2402,18.6782-18.165,33.1548-37.4394,33.1548c-20.836,0-37.7277-16.9004-37.7277-37.7168v-0.1748l0,0v-0.0308
			c0-1.5205,0.1027-3.041,0.2881-4.5205c6.2051-100.77-4.9316-176.0908-33.4121-225.9824
			c-25.542-44.6934-67.2344-68.8584-125.1914-72.3823v0.0307h-80.4072v-0.1645H204.0879V110.3457z"/>
		<path fill="#8C7C8E" d="M953.627,543.3555c-30.084,0-54.5567-24.4639-54.5567-54.5469c0-2.4145,0.1445-4.6133,0.4004-6.7603
			c5.8877-95.9619-4.623-168.8266-31.3154-215.6054c-22.7578-39.8233-59.2627-60.7315-111.5889-63.9268l-79.3789,0.0723h-0.0107
			c-0.7911,0-1.5714-0.062-2.3526-0.1646H204.0879c-9.2979,0-16.8394-7.5415-16.8394-16.8398v-75.2383
			c0-9.2983,7.5415-16.8393,16.8394-16.8393h470.9932c0.6884-0.0826,1.3877-0.1236,2.0957-0.1236l83.4785,0.1646
			c91.79,4.8906,159.9189,44.9292,202.2285,119.0171c37.9228,66.3818,53.0664,161.2338,45.0225,281.9155
			c-0.0518,0.8325-0.1651,1.644-0.3399,2.4243C1003.6211,523.4941,980.709,543.3555,953.627,543.3555L953.627,543.3555z
			 M679.54,168.9194h78.044c64.666,3.8633,111.3623,31.0489,139.8115,80.8277c30.0108,52.5732,41.9707,131.7573,35.5908,235.3628
			c-0.1953,1.8188-0.247,2.6611-0.247,3.4931c0,11.7134,9.3701,21.0826,20.8878,21.0826c10.5721,0,19.4687-7.8692,20.7226-18.3184
			c0.0107-0.1338,0.0312-0.2568,0.0518-0.3906c7.4072-113.356-6.2979-201.4063-40.7481-261.7061
			c-36.792-64.4097-94.04-97.811-175.042-102.1162l-2.1786-0.1435l-77.1494,0.041c-0.6885,0.082-1.3867,0.123-2.1064,0.123H220.9175
			v41.5801h456.2593C677.9883,168.7549,678.7695,168.8062,679.54,168.9194L679.54,168.9194z"/>
	</g>
</g>
</svg>
