<?xml version="1.0" encoding="utf-8"?>
<!-- Generator: Adobe Illustrator 17.1.0, SVG Export Plug-In . SVG Version: 6.00 Build 0)  -->
<!DOCTYPE svg PUBLIC "-//W3C//DTD SVG 1.1//EN" "http://www.w3.org/Graphics/SVG/1.1/DTD/svg11.dtd">
<svg version="1.1" id="coffee-maker" xmlns="http://www.w3.org/2000/svg" xmlns:xlink="http://www.w3.org/1999/xlink" x="0px"
	 y="0px" viewBox="0 0 791.6519 1010" enable-background="new 0 0 791.6519 1010" xml:space="preserve">
<g id="coffee-maker-coffee-maker">
	<rect x="345.523" y="267.4287" fill="#FBF8F6" width="247.6709" height="402.4932"/>
	<path fill="#EFEDED" d="M344.064,67.1318c13.9116,0,25.2334,11.3223,25.2334,25.2442c0,13.9521-11.3218,25.3052-25.2334,25.3052
		c-13.9317,0-25.2744-11.3531-25.2744-25.3052C318.7896,78.4541,330.1323,67.1318,344.064,67.1318z"/>
	<polygon fill="#FBF8F6" points="103.9136,661.8057 103.9136,377.6509 45.6177,275.5557 334.4473,275.5557 334.4473,661.8057 	"/>
	<path fill="#A37458" d="M214.3823,993.1709c-66.2275,0-120.0854-53.8682-120.0854-120.0752V671.4121H344.064v200.625v-200.625
		h250.6094v201.6836c0,66.207-53.878,120.0752-120.086,120.0752H214.3823z"/>
	<path fill="#7A5742" d="M579.982,688.2412H108.0645c-9.2881,0-16.8291-7.5303-16.8291-16.8291
		c0-9.2988,7.541-16.8398,16.8291-16.8398H579.982c9.3085,0,16.8281,7.541,16.8281,16.8398
		C596.8101,680.7109,589.2905,688.2412,579.982,688.2412L579.982,688.2412z"/>
	<path fill="#8C7C8E" d="M104.4683,273.2949c-1.5615,0-3.1641-0.2261-4.7466-0.688c-8.918-2.6201-14.0347-11.9799-11.4043-20.8979
		l10.0483-34.2031c13.7881-46.6451,55.8096-77.9815,104.5713-77.9815h293.5762c49.4609,0,91.9551,31.3364,105.7012,77.9712
		l8.4258,34.9531c2.1777,9.041-3.3907,18.1338-12.4317,20.3018c-9.0215,2.1885-18.125-3.3804-20.3027-12.4214l-8.1992-34.1416
		c-9.2666-31.3672-38.7745-52.9946-73.1934-52.9946H202.937c-33.7202,0-62.7553,21.6274-72.2895,53.8271l-10.0279,34.1719
		C118.4619,268.5381,111.7427,273.2847,104.4683,273.2949L104.4683,273.2949z"/>
	<path fill="#E6DBD5" d="M474.5874,1010H214.3823c-75.4951,0-136.9145-61.4199-136.9145-136.9043v-488.438L0,249.0991h611.5034
		v93.4238h56.5284c68.1591,0,123.6201,55.44,123.6201,123.5684v220.1665c0,68.1387-55.461,123.5899-123.6201,123.5899h-56.5284
		v63.248C611.5034,948.5801,550.0835,1010,474.5874,1010L474.5874,1010z M58.0288,282.7681l53.0972,92.9614v497.3662
		c0,56.9297,46.3164,103.2354,103.2563,103.2354h260.2051c56.9199,0,103.2363-46.3057,103.2363-103.2354v-96.917h90.2081
		c49.6044,0,89.9404-40.3369,89.9404-89.9209V466.0913c0-49.5732-40.336-89.8994-89.9404-89.8994h-90.2081v-93.4238H58.0288
		L58.0288,282.7681z"/>
	<path fill="#7A5742" d="M487.4927,888.8672H200.6148c-9.2876,0-16.8291-7.5313-16.8291-16.8301
		c0-9.2978,7.5415-16.8291,16.8291-16.8291h286.8779c9.2881,0,16.8291,7.5313,16.8291,16.8291
		C504.3218,881.3359,496.7808,888.8672,487.4927,888.8672L487.4927,888.8672z"/>
	<path fill="#E6DBD5" d="M594.6734,818.6426c-9.3086,0-16.8497-7.5312-16.8497-16.8301v-434.96
		c0-9.288,7.5411-16.8291,16.8497-16.8291c9.288,0,16.83,7.5411,16.83,16.8291v434.96
		C611.5034,811.1113,603.9614,818.6426,594.6734,818.6426L594.6734,818.6426z"/>
	<g>
		<path fill="#8C7C8E" d="M387.0308,59.8271c0,23.7847-19.2334,43.0591-42.9668,43.0591c-23.7744,0-43.0283-19.2744-43.0283-43.0591
			c0-23.7338,19.2539-42.998,43.0283-42.998C367.7974,16.8291,387.0308,36.0933,387.0308,59.8271z"/>
		<path fill="#6F5B72" d="M344.064,119.7158c-33.001,0-59.8579-26.8569-59.8579-59.8887C284.2061,26.8364,311.063,0,344.064,0
			c32.9805,0,59.7964,26.8364,59.7964,59.8271C403.8604,92.8589,377.0445,119.7158,344.064,119.7158L344.064,119.7158z
			 M344.064,33.6689c-14.4453,0-26.1787,11.733-26.1787,26.1582c0,14.4556,11.7334,26.2198,26.1787,26.2198
			c14.4048,0,26.1377-11.7642,26.1377-26.2198C370.2017,45.4019,358.4688,33.6689,344.064,33.6689L344.064,33.6689z"/>
	</g>
	<polygon fill="#8C7C8E" points="360.8931,655.5176 327.2144,655.5176 327.2144,265.3325 360.8931,265.3325 360.8931,655.5176 	"/>
	<polygon fill="#7A5742" points="360.8931,866.6953 327.2144,866.6953 327.2144,667.416 360.8931,667.416 360.8931,866.6953 	"/>
	<polygon fill="#8C7C8E" points="360.8931,265.3325 327.2144,265.3325 327.2144,152.6138 360.8931,152.6138 360.8931,265.3325 	"/>
	<g>
		<path fill="#8C7C8E" d="M594.6734,232.7939l-9.1856-42.9257c-11.5273-39.1553-47.2617-65.4468-88.9746-65.4468H202.937
			c-41.0151,0-76.2968,26.2915-87.8657,65.457l-12.5962,42.9155H594.6734z"/>
		<path fill="#6F5B72" d="M615.4898,249.6333H79.9951l18.9253-64.5015c13.6851-46.3881,55.5015-77.54,104.0166-77.54h293.5762
			c49.2344,0,91.4609,31.1519,105.127,77.5298L615.4898,249.6333L615.4898,249.6333z M124.9761,215.9648h448.8818l-4.8291-22.5727
			c-9.082-30.689-38.3437-52.1314-72.5156-52.1314H202.937c-33.4736,0-62.2827,21.4527-71.7143,53.3848L124.9761,215.9648
			L124.9761,215.9648z"/>
	</g>
</g>
</svg>
