<?xml version="1.0" encoding="utf-8"?>
<!-- Generator: Adobe Illustrator 17.1.0, SVG Export Plug-In . SVG Version: 6.00 Build 0)  -->
<!DOCTYPE svg PUBLIC "-//W3C//DTD SVG 1.1//EN" "http://www.w3.org/Graphics/SVG/1.1/DTD/svg11.dtd">
<svg version="1.1" id="espresso-machine" xmlns="http://www.w3.org/2000/svg" xmlns:xlink="http://www.w3.org/1999/xlink" x="0px"
	 y="0px" viewBox="0 0 959.5332 1010" enable-background="new 0 0 959.5332 1010" xml:space="preserve">
<g id="espresso-machine-espresso-machine">
	<g id="espresso-machine-color">
		<path fill="#F8F4F2" d="M792.4941,403.9937h-625.455c-30.6587,0-59.1079-9.2056-82.8721-24.9664v513.1475h774.3398V388.562
			C838.5537,398.353,816.2275,403.9937,792.4941,403.9937z"/>
		<rect x="294.5937" y="112.7905" fill="#FFFFFF" width="370.335" height="195.2725"/>
		<g>
			<path fill="#FFFFFF" d="M549.4268,824.8477H432.3203c-42.0527,0-76.1221-34.0899-76.1221-76.1016v-75.3926h269.3594v75.3926
				C625.5576,790.7578,591.4785,824.8477,549.4268,824.8477z"/>
		</g>
		<g>
			<path fill="#A37458" d="M549.4268,892.1748H432.3203c-42.0527,0-76.1221-34.0791-76.1221-76.1006v-58.5537h269.3594v58.5537
				C625.5576,858.0957,591.4785,892.1748,549.4268,892.1748z"/>
		</g>
		<rect x="745.0166" y="150.1172" fill="#FFFFFF" width="100.9961" height="84.1562"/>
		<path fill="#8C7C8E" d="M227.4414,538.6582h180.0049c12.1133,0,21.9766-9.8423,21.9766-21.9766v-23.3735
			c0-12.124-9.8633-21.9668-21.9766-21.9668H227.4414c-18.6274,0-33.6689,15.0625-33.6689,33.6587
			S208.814,538.6582,227.4414,538.6582z"/>
		<path fill="#BCB3BE" d="M407.4463,471.3413h-45.3609v-67.3476h235.691v134.6645c0,27.9053-22.6446,50.5078-50.5078,50.5078
			H412.5937c-27.8637,0-50.5083-22.6025-50.5083-50.5078h45.3609c12.144,0,21.9766-9.8423,21.9766-21.9766v-23.3735
			C429.4229,481.1841,419.5903,471.3413,407.4463,471.3413z"/>
		<path fill="#8C7C8E" d="M207.8789,192.1899c0,32.354-26.2197,58.584-58.5732,58.584c-32.3536,0-58.5943-26.23-58.5943-58.584
			c0-32.3535,26.2407-58.5732,58.5943-58.5732C181.6592,133.6167,207.8789,159.8364,207.8789,192.1899z"/>
	</g>
	<g id="espresso-machine-line">
		<g>
			<path fill="#E6DBD5" d="M875.3457,909.0137H67.3374V347.6602l26.1377,17.3427c21.8535,14.4971,47.2925,22.1514,73.564,22.1514
				h625.455c20.3428,0,40.0596-4.603,58.6045-13.7056l24.2471-11.8979V909.0137L875.3457,909.0137z M101.0063,875.3457h740.6705
				V413.3638c-15.9043,4.9521-32.3633,7.4594-49.1827,7.4594h-625.455c-22.9014,0-45.2994-4.6543-66.0328-13.5932V875.3457
				L101.0063,875.3457z"/>
		</g>
		<g>
			<path fill="#8C7C8E" d="M547.2686,606.0059H412.5937c-37.1313,0-67.3374-30.2061-67.3374-67.3477
				c0-9.2978,7.5308-16.8291,16.8291-16.8291c9.2979,0,16.8394,7.5313,16.8394,16.8291c0,18.5659,15.0928,33.6797,33.6689,33.6797
				h134.6749c18.576,0,33.6678-15.1138,33.6678-33.6797v-117.835H378.9248v50.5181c0,9.2983-7.5415,16.8296-16.8394,16.8296
				c-9.2983,0-16.8291-7.5313-16.8291-16.8296v-84.187h269.3501v151.5039C614.6064,575.7998,584.3994,606.0059,547.2686,606.0059
				L547.2686,606.0059z"/>
		</g>
		<g>
			<path fill="#E3B08D" d="M792.4941,403.9937h-625.455c-82.9546,0-150.1993-67.2242-150.1993-150.1583V88.3276
				c0-39.4941,32.0249-71.4882,71.4781-71.4882h782.8872c39.4844,0,71.4883,31.9941,71.4883,71.4882v165.5078
				C942.6934,336.7695,875.4385,403.9937,792.4941,403.9937z"/>
			<path fill="#B79584" d="M792.4941,420.8232h-625.455C74.9302,420.8232,0,345.9136,0,253.8354V88.3276
				C0,39.6279,39.6177,0,88.3179,0h782.8872c48.7002,0,88.3281,39.6279,88.3281,88.3276v165.5078
				C959.5332,345.9136,884.6025,420.8232,792.4941,420.8232L792.4941,420.8232z M88.3179,33.6689
				c-30.1348,0-54.649,24.5245-54.649,54.6587v165.5078c0,73.5127,59.8272,133.3189,133.3702,133.3189h625.455
				c73.5323,0,133.3702-59.8062,133.3702-133.3189V88.3276c0-30.1342-24.5245-54.6587-54.6592-54.6587H88.3179L88.3179,33.6689z"/>
		</g>
		<g>
			<rect x="294.5937" y="112.7905" fill="#FFFFFF" width="370.335" height="195.2725"/>
			<path fill="#B79584" d="M681.7588,324.8926H277.7544V95.9614h404.0044V324.8926L681.7588,324.8926z M311.4229,291.2339h336.6669
				V129.6304H311.4229V291.2339L311.4229,291.2339z"/>
		</g>
		<g>
			<g>
				<path fill="#E6DBD5" d="M549.4268,909.0137H432.3203c-51.248,0-92.9512-41.6924-92.9512-92.9395V656.5137h303.0186v159.5605
					C642.3877,867.3213,600.6846,909.0137,549.4268,909.0137L549.4268,909.0137z M373.0376,690.1836v125.8906
					c0,32.6817,26.5898,59.2715,59.2827,59.2715h117.1065c32.6913,0,59.2919-26.5898,59.2919-59.2715V690.1836H373.0376
					L373.0376,690.1836z"/>
			</g>
			<g>
				<path fill="#E6DBD5" d="M373.0376,824.8379h-84.1665c-46.4087,0-84.1665-37.7481-84.1665-84.1563
					c0-46.4091,37.7578-84.1679,84.1665-84.1679h84.1665V824.8379L373.0376,824.8379z M288.8711,690.1836
					c-27.8535,0-50.498,22.6543-50.498,50.498c0,27.8321,22.6446,50.4873,50.498,50.4873h50.498V690.1836H288.8711
					L288.8711,690.1836z"/>
			</g>
		</g>
		<g>
			<rect x="745.0166" y="150.1172" fill="#8C7C8E" width="100.9961" height="84.1562"/>
			<path fill="#6F5B72" d="M862.8525,251.1025h-134.665V133.2881h134.665V251.1025L862.8525,251.1025z M761.8467,217.4341h67.3369
				v-50.4878h-67.3369V217.4341L761.8467,217.4341z"/>
		</g>
		<g>
			<path fill="#8C7C8E" d="M455.4268,639.6641c-9.2979,0-16.8291-7.5303-16.8291-16.8282v-14.1484
				c0-9.2979,7.5312-16.8291,16.8291-16.8291c9.2983,0,16.8398,7.5312,16.8398,16.8291v14.1484
				C472.2666,632.1338,464.7251,639.6641,455.4268,639.6641L455.4268,639.6641z"/>
		</g>
		<g>
			<path fill="#8C7C8E" d="M522.7744,639.6641c-9.2871,0-16.8291-7.5303-16.8291-16.8282v-14.1484
				c0-9.2979,7.542-16.8291,16.8291-16.8291c9.2988,0,16.8399,7.5312,16.8399,16.8291v14.1484
				C539.6143,632.1338,532.0732,639.6641,522.7744,639.6641L522.7744,639.6641z"/>
		</g>
		<g>
			<path fill="#8C7C8E" d="M207.8789,192.1899c0,32.354-26.2197,58.584-58.5732,58.584c-32.3536,0-58.5943-26.23-58.5943-58.584
				c0-32.3535,26.2407-58.5732,58.5943-58.5732C181.6592,133.6167,207.8789,159.8364,207.8789,192.1899z"/>
			<path fill="#6F5B72" d="M149.3057,267.603c-41.5904,0-75.4234-33.8227-75.4234-75.4131c0-41.5795,33.833-75.4126,75.4234-75.4126
				c41.5796,0,75.4028,33.8331,75.4028,75.4126C224.7085,233.7803,190.8853,267.603,149.3057,267.603L149.3057,267.603z
				 M149.3057,150.4458c-23.0249,0-41.7544,18.7197-41.7544,41.7441c0,23.0249,18.7295,41.7549,41.7544,41.7549
				c23.0141,0,41.7338-18.73,41.7338-41.7549C191.0395,169.1655,172.3198,150.4458,149.3057,150.4458L149.3057,150.4458z"/>
		</g>
		<g>
			<g>
				<polygon fill="#8C7C8E" points="596.9346,195.0977 362.5991,195.0977 362.5991,161.4292 596.9346,161.4292 596.9346,195.0977 
									"/>
			</g>
			<g>
				<polygon fill="#8C7C8E" points="456.3311,263.4419 362.5991,263.4419 362.5991,229.7734 456.3311,229.7734 456.3311,263.4419 
									"/>
			</g>
			<g>
				<polygon fill="#8C7C8E" points="596.9346,263.4419 526.6279,263.4419 526.6279,229.7734 596.9346,229.7734 596.9346,263.4419 
									"/>
			</g>
		</g>
		<g>
			<path fill="#6F5B72" d="M407.4463,555.498h-45.3609c-9.2983,0-16.8291-7.5415-16.8291-16.8398
				c0-9.2978,7.5308-16.8291,16.8291-16.8291h45.3609c2.8354,0,5.1474-2.3115,5.1474-5.1475v-23.3735
				c0-2.8359-2.312-5.1372-5.1474-5.1372h-45.3609c-9.2983,0-16.8291-7.5313-16.8291-16.8296
				c0-9.2978,7.5308-16.8291,16.8291-16.8291h45.3609c21.4014,0,38.8057,17.4048,38.8057,38.7959v23.3735
				C446.252,538.083,428.8477,555.498,407.4463,555.498L407.4463,555.498z"/>
		</g>
		<g>
			<path fill="#6F5B72" d="M407.4463,555.498H227.4414c-27.8535,0-50.5083-22.6547-50.5083-50.498
				c0-27.8433,22.6548-50.4878,50.5083-50.4878h180.0049c21.4014,0,38.8057,17.4048,38.8057,38.7959v23.3735
				C446.252,538.083,428.8477,555.498,407.4463,555.498L407.4463,555.498z M227.4414,488.1709
				c-9.2881,0-16.8398,7.5513-16.8398,16.8291c0,9.2778,7.5517,16.8291,16.8398,16.8291h180.0049
				c2.8354,0,5.1474-2.3115,5.1474-5.1475v-23.3735c0-2.8359-2.312-5.1372-5.1474-5.1372H227.4414L227.4414,488.1709z"/>
		</g>
		<g>
			<path fill="#8C7C8E" d="M942.6934,993.1709H16.8398v-44.0254c0-31.4795,25.5108-56.9707,56.9707-56.9707h811.9229
				c31.4287,0,56.96,25.4912,56.96,56.9707V993.1709z"/>
			<path fill="#6F5B72" d="M959.5332,1010H0v-60.8545c0-40.6963,33.1143-73.7998,73.8105-73.7998h811.9229
				c40.6855,0,73.7998,33.1035,73.7998,73.7998V1010L959.5332,1010z M33.6689,976.3418h892.1954v-27.1963
				c0-22.1201-18-40.1318-40.1309-40.1318H73.8105c-22.1308,0-40.1416,18.0117-40.1416,40.1318V976.3418L33.6689,976.3418z"/>
		</g>
	</g>
</g>
</svg>
