<?xml version="1.0" encoding="UTF-8" standalone="no"?>
<svg width="1010px" height="1010px" viewBox="0 0 1010 1010" version="1.1" xmlns="http://www.w3.org/2000/svg" xmlns:xlink="http://www.w3.org/1999/xlink" xmlns:sketch="http://www.bohemiancoding.com/sketch/ns">
    <!-- Generator: Sketch 3.5.1 (25234) - http://www.bohemiancoding.com/sketch -->
    <title>coffee-bean</title>
    <desc>Created with Sketch.</desc>
    <defs></defs>
    <g id="Page-1" stroke="none" stroke-width="1" fill="none" fill-rule="evenodd" sketch:type="MSPage">
        <g id="coffee-bean" sketch:type="MSLayerGroup">
            <g id="coffee-bean-coffee-bean" sketch:type="MSShapeGroup">
                <g id="coffee-bean-color" transform="translate(18.000000, 19.000000)">
                    <path d="M776.4924,881.7988 C768.1779,880.2968 761.1096,878.8867 753.1252,877.0791 C739.6681,873.3926 727.1281,869.8457 715.1515,865.666 L707.6135,862.707 C696.4816,858.3623 685.3967,853.9941 674.2658,848.6875 C642.0929,832.9063 614.6164,816.2559 590.0285,797.6797 C564.6428,779.3857 538.5285,755.5488 510.5119,725.1611 L502.8093,716.0254 C493.1808,704.5664 482.237,691.5791 472.5148,676.5957 L467.7472,669.6914 C463.7316,663.915 459.716,658.0908 456.4753,652.7129 L440.8112,624.4385 C437.4767,618.873 434.4709,612.0156 431.6291,605.5332 L421.4841,582.6367 C419.0886,576.3193 417.7502,572.2568 416.4582,568.1934 L409.6247,545.9785 L399.6906,500.0669 C395.8161,474.5166 388.4421,448.8955 376.9582,420.644 C365.6154,393.6138 349.717,366.3726 335.697,342.9824 L334.0998,340.7046 C318.9294,318.4185 303.2892,295.3569 287.132,276.5698 C269.2136,254.166 250.9196,235.0972 233.7531,217.7656 C228.8215,212.6934 224.0773,208.4189 219.404,204.2861 C214.778,200.0825 210.9733,196.6304 206.5583,192.2622 C203.5524,189.6318 199.1374,186.1094 194.8635,182.6338 C190.7067,179.3223 186.7614,176.1523 181.5012,171.5962 L153.6257,150.9771 L174.4792,101.8486 L176.3346,102.4126 L180.1623,87.4297 L198.0339,90.7407 C204.3976,91.9385 211.2785,93.3242 219.0519,95.0854 C232.4845,98.749 245.0251,102.3418 256.9553,106.4517 L262.7555,108.7061 C274.1686,113.2148 286.0988,117.9116 297.6999,123.3599 C330.1784,139.376 357.631,156.0264 382.0309,174.5317 C387.7844,178.665 394.4304,183.7139 401.0998,189.1855 C420.6857,205.1782 440.4123,224.0127 461.4538,246.7451 L470.5422,257.5479 C480.8044,269.8062 490.4567,281.3838 499.4977,295.3101 L504.9225,303.2944 C508.5861,308.4609 512.3908,314.0269 515.467,319.0054 L530.7082,346.3643 C552.6896,389.2461 566.2629,429.8262 572.4865,470.853 L573.05,474.1406 L573.3791,475.4087 L578.0754,500.748 L588.5257,533.2734 L590.428,538.6515 C591.8606,542.879 592.8704,546.1661 594.1155,548.6085 C607.2659,579.2315 623.7288,607.4591 636.5979,628.7364 L638.0296,630.7091 C654.3518,654.756 669.428,676.9728 685.2093,695.2188 C703.9026,718.586 723.4886,738.8282 738.5179,753.9532 C743.6848,759.3536 748.5218,763.6749 753.2659,767.9259 L755.1917,769.6876 C759.2307,773.3497 762.2835,776.1681 765.6184,779.4093 C769.094,782.5099 773.7444,786.2198 778.2766,789.8829 L779.8968,791.1983 C783.3723,794.0157 786.6604,796.6466 790.6995,800.2159 L815.8274,818.8155 L799.1302,868.9298 L798.5432,868.836 L794.9973,885.1817 L776.4924,881.7988 L776.4924,881.7988 Z" id="Shape" fill="#CF956E"></path>
                    <path d="M604.8713,971.6016 C462.4401,971.6016 311.485,902.2773 190.6833,781.4287 C85.2165,675.9863 18.8273,548.1855 3.821,421.4658 C-10.1522,304.1401 21.1052,196.231 91.7687,117.6064 L103.675,104.4321 L131.4094,118.6162 C133.8991,119.7905 136.9518,121.7632 140.0988,123.8296 C143.6213,126.2251 146.0871,127.8223 148.5763,129.3252 C161.0466,136.7461 176.5929,148.3472 189.0861,157.647 L191.4347,159.3848 C196.7419,163.9873 200.7111,167.1812 204.6799,170.4219 C209.1652,173.9917 213.7443,177.6553 217.361,180.896 C222.0109,185.4517 225.9094,188.9272 229.8547,192.4502 C234.9978,197.0527 239.9055,201.4912 244.9313,206.6812 C262.3093,224.2476 281.0729,243.833 299.0617,266.3306 C315.7121,285.6816 330.8825,307.9678 346.8986,331.5928 L349.0358,334.6689 C363.9484,359.5386 379.8937,386.9443 391.4714,414.6792 C403.3307,443.8228 411.1745,471.0645 414.9084,495.8867 L421.0612,528.1772 C421.3429,529.4927 421.6012,530.8076 422.1418,533.0151 L431.6056,563.873 C432.7092,567.3486 433.9538,571.1523 435.7858,576.0137 C435.7858,576.0137 444.381,595.3887 445.7663,598.5117 C448.5612,604.9473 451.3322,611.3574 454.5495,616.8535 L469.9313,644.5879 C473.0314,649.7773 476.9064,655.3437 480.7809,660.8848 L485.5954,667.8125 C494.801,682.0449 505.0168,694.1621 514.8566,705.8809 L521.9719,714.3818 C549.2131,743.9483 574.7873,767.3145 599.5158,785.1152 C623.2814,803.128 649.7717,819.1681 681.006,834.4785 C691.8088,839.6455 702.9631,844.0137 713.4846,848.1699 L720.2004,850.7773 C731.9426,854.8398 744.1779,858.3154 756.4593,861.6973 C761.4143,862.8008 775.2708,865.5957 775.2708,865.5957 C780.6253,866.582 791.4983,868.3438 791.4983,868.3438 C795.4436,868.8828 799.2952,869.4004 802.8167,869.6816 L868.6897,875.5996 L813.5021,912 C753.5715,951.5469 683.4006,971.6016 604.8713,971.6016 L604.8713,971.6016 L604.8713,971.6016 Z" id="Shape" fill="#955F3E"></path>
                    <path d="M841.5187,853.5254 C838.9826,852.2559 836.0002,850.4014 832.8771,848.3584 C829.3771,846.0566 826.7472,844.3652 823.9064,842.6523 C810.7785,834.9727 795.5373,823.5117 782.0804,813.3203 L779.2864,811.1602 C775.8343,808.1543 772.2171,805.2422 768.554,802.2832 C763.1995,798.0078 758.6438,794.251 754.7454,790.752 C750.4007,786.5254 746.596,783.1191 742.7688,779.6445 C737.7426,775.1349 732.6702,770.5323 727.4339,765.1075 C711.1595,748.7394 691.8089,728.6837 673.3499,705.5284 C656.5354,686.0372 641.2473,663.4923 625.0667,639.6329 L623.2815,637.0489 C609.6144,614.504 593.0823,586.1124 580.2132,555.8888 C578.8499,553.2579 577.4182,549.2657 576.1028,545.3673 C574.8577,541.7042 574.0598,539.2618 573.1438,537.0777 L569.387,527.2379 L557.4095,475.4322 C555.9534,466.2735 554.3098,458.8761 552.7132,451.4083 L551.3264,444.4806 C549.7542,438.0929 547.7815,431.6817 545.8323,425.2706 C545.8323,425.2706 543.2483,416.1588 542.803,414.8438 C541.2054,410.006 539.2561,405.1212 537.3304,400.2364 L533.6907,390.7022 C532.9632,388.7296 532.2347,386.7569 531.3889,384.7369 C527.0921,374.5919 522.3245,364.3531 516.97,353.9967 L502.1985,327.4596 C499.2395,322.6222 495.576,317.2911 491.9124,312.0309 L486.4407,304.1168 C477.7049,290.6134 467.9119,278.9181 458.448,267.5987 L450.0408,257.5948 C422.7054,228.0753 397.1311,204.732 372.5667,187.0724 C348.9187,169.1539 322.4285,153.044 291.0071,137.6383 C279.7581,132.3312 268.1101,127.7516 257.1194,123.4073 L251.9529,121.3873 C240.2112,117.3014 227.9758,113.8258 215.6702,110.4439 C210.6682,109.317 197.1414,106.6163 197.1414,106.6163 C191.6228,105.5592 187.9827,104.902 184.5071,104.3854 L184.178,80.9244 L180.9138,103.798 C176.7337,103.1642 172.7884,102.671 169.1721,102.3419 L104.0271,96.025 L158.6512,60.0475 C218.6057,20.5001 288.823,0.4215 367.3299,0.4215 C509.7605,0.4215 660.7386,69.7228 781.5647,190.5245 C887.008,295.9912 953.3732,423.8379 968.4728,550.5107 C982.3996,667.8125 951.1428,775.7227 880.4787,854.2998 L868.4787,867.6387 L841.5187,853.5254 L841.5187,853.5254 Z" id="Shape" fill="#955F3E"></path>
                </g>
                <g id="coffee-bean-line" fill="#7A5742">
                    <path d="M622.8713,1010 C475.3439,1010 319.3869,938.6328 194.9684,814.167 C-26.7908,592.4551 -64.6942,282.9355 108.6647,109.5767 C114.1364,104.1279 122.2853,102.4375 129.3776,105.1616 C130.9748,105.772 132.4543,106.6177 133.8395,107.5566 C135.4836,108.4961 138.6774,110.2808 143.3742,112.6763 L157.6056,120.0269 C161.3864,121.7881 165.6603,124.5591 170.0754,127.4946 C172.1657,128.8804 174.2555,130.2896 176.5334,131.6514 C189.8019,139.542 204.6677,150.5562 222.6799,164.1533 C227.3766,168.2158 231.0402,171.1514 234.7507,174.1572 C239.5881,178.0088 244.4728,181.9541 249.3107,186.3691 C253.4201,190.3613 257.0133,193.6021 260.6769,196.8901 C266.0075,201.6572 271.4557,206.5654 276.7165,212.0605 C294.4235,229.9087 313.5392,249.7759 331.6926,272.5552 C349.235,292.9395 365.486,316.9165 381.2204,340.0483 L383.9679,344.1113 C398.9035,368.981 415.2013,396.9971 427.4601,426.3755 C439.9304,456.9517 448.173,485.5083 452.0246,511.5288 L458.154,543.5371 C458.3415,544.3594 458.4826,545.2515 458.7878,546.2852 L468.0641,576.7676 C469.1911,580.2891 470.3185,583.8125 471.5397,587.0996 L477.3874,600.4395 C478.7258,603.21 480.1584,606.5449 481.6144,609.8789 C484.0803,615.5859 486.5461,621.3164 489.5754,626.5059 L504.4406,653.3721 C507.423,658.3037 511.0632,663.5175 514.6564,668.6836 L520.0812,676.5273 C528.3708,689.3965 537.6934,700.4805 547.5568,712.2227 L554.2502,720.207 C580.5529,748.7403 605.3283,771.4023 629.3283,788.6875 C652.0138,805.877 677.4006,821.2363 707.3185,835.96 C717.5822,840.7979 728.1496,844.9551 738.1535,848.9004 L744.5412,851.4355 C755.9308,855.3809 767.7433,858.6934 778.6398,861.7227 C802.7111,867.1699 819.9953,869.7773 833.8742,869.9414 C839.1584,870.3877 842.7043,870.5049 846.0392,870.5049 C853.5304,870.5049 859.9885,869.8242 865.2248,869.2832 L870.6037,868.791 C876.6857,868.1797 880.4435,867.6406 881.6174,867.4287 C884.881,866.8418 888.6858,867.0762 891.8802,868.2031 C898.1506,870.4814 903.0588,875.8593 904.5139,882.3408 C905.9475,888.8457 904.2093,895.7031 899.5354,900.377 C827.839,972.0967 732.1887,1010 622.8713,1010 L622.8713,1010 L622.8713,1010 Z M126.1369,147.4795 C-20.098,307.3823 20.5529,584.8457 222.3976,786.7148 C339.6301,903.9463 485.5832,971.1582 622.8713,971.1582 C701.3537,971.1582 771.877,949.6934 829.7647,908.666 C814.922,908.291 795.6661,905.4023 769.129,899.3906 C756.6114,895.9141 743.9776,892.3457 730.9903,887.8359 L723.922,885.0645 C713.1661,880.8145 701.7774,876.3291 690.4102,870.9277 C658.0019,855.0059 630.5498,838.332 606.2442,819.9199 C580.4346,801.3682 553.7569,776.9922 525.0128,745.7812 L517.8267,737.21 C507.6344,725.0449 497.043,712.4569 487.6495,697.9453 L482.7882,690.8994 C478.7491,685.0518 474.6158,679.1338 470.8585,672.9102 L455.8053,645.7168 C452.0714,639.2812 448.9713,632.2363 445.9888,625.3789 C444.6739,622.4199 443.3824,619.3906 441.9967,616.4551 L435.4918,601.5664 C433.6832,596.7285 432.3682,592.7363 431.0767,588.6973 L421.3775,556.8291 C420.6969,554.3633 420.3443,552.6489 420.0157,550.9585 C419.9923,550.6997 419.546,548.5864 419.4757,548.3281 L413.6749,517.6816 C410.1993,494.3384 402.8018,468.7407 391.5767,441.2173 C380.3511,414.3521 364.8516,387.7681 351.2076,364.9883 L349.0704,361.8887 C333.2657,338.6157 318.377,316.5879 301.7735,297.3311 C284.3018,275.4673 266.0782,256.4687 248.9112,239.1611 C244.1207,234.1826 239.3765,229.9556 234.7266,225.8223 C230.6173,222.0884 226.5308,218.4248 222.6324,214.5967 C219.0162,211.3325 214.6715,207.8569 210.421,204.4048 C206.1939,201.0229 202.0606,197.665 198.1153,194.1895 C182.2403,182.2827 168.2437,171.9028 156.6661,164.9985 C153.8717,163.355 151.1944,161.5698 148.5875,159.832 C145.793,158.0005 143.1861,156.1685 140.462,154.877 L126.1369,147.4795 L126.1369,147.4795 L126.1369,147.4795 Z" id="Shape"></path>
                    <path d="M885.7971,906.084 C883.59,906.084 881.3361,905.707 879.1984,904.9326 L878.7287,904.7676 C876.967,904.1348 875.3469,903.2891 873.8908,902.2324 L850.8068,889.9258 C847.3303,888.1885 843.4553,885.6992 839.3459,882.998 C837.0685,881.5195 834.6486,879.9453 832.1135,878.4434 C818.2111,870.3174 803.4395,859.2324 785.5676,845.6113 C781.34,841.9961 777.9357,839.2715 774.507,836.5 C769.34,832.3672 764.1271,828.1172 758.9601,823.4434 C754.9679,819.5449 751.3752,816.3047 747.7111,813.0156 C742.381,808.2256 736.9553,803.3408 731.6955,797.8926 C714.9982,781.1016 695.2951,760.5762 676.7189,737.3037 C659.0119,716.7793 642.6916,692.6836 626.84,669.3418 L624.4435,665.7949 C610.6584,643.1094 593.7971,614.1074 580.881,583.6953 C578.8382,579.6797 577.0295,574.5596 575.3156,569.416 C574.5412,567.1855 573.8127,564.9551 572.9435,562.7236 L562.5168,530.1279 C562.0002,528.6016 561.507,526.2529 561.0842,523.8345 C561.0138,523.5996 560.6613,521.6738 560.6144,521.4857 L556.9279,501.1723 C556.6691,500.3969 556.4806,499.5751 556.34,498.7299 C556.1525,497.4853 555.965,496.2641 555.7765,494.996 C550.0471,457.7738 537.6701,420.9271 518.0617,382.5307 L503.6423,356.6278 C500.8478,352.0722 497.3957,347.1171 493.967,342.162 L487.9787,333.3788 C480.0407,321.12 470.9997,310.3646 461.465,298.9984 L453.8093,289.7924 C427.3195,261.1889 402.5202,238.5507 378.7546,221.454 C356.1862,204.3578 330.8,188.9994 300.8107,174.2514 C289.9377,169.0849 278.8063,164.7636 268.2858,160.5834 L263.589,158.7284 C252.2223,154.8065 240.4338,151.4247 229.4899,148.3954 C205.4191,142.9706 187.9704,140.2934 173.7858,139.9882 C168.7136,139.5653 165.3083,139.4008 162.1144,139.4008 C155.0221,139.4008 149.0807,140.1054 144.1257,140.5985 L137.5265,141.2562 C132.36,141.7963 128.6027,142.3129 126.8415,142.5712 C126.3718,142.5946 124.6808,142.8295 124.2345,142.8529 C121.4167,142.9706 118.5749,142.5946 115.945,141.6083 C109.7922,139.2367 105.0246,133.8588 103.6393,127.4242 C102.3005,120.9896 104.0383,114.2025 108.6647,109.5766 C180.3849,37.9033 276.0588,0 385.3532,0 C532.8801,0 688.8605,71.3442 813.3029,195.8096 C921.8224,304.3057 990.1369,436.1919 1005.7306,567.1855 C1021.2765,698.0391 983.5842,816.3516 899.5353,900.377 C895.8254,904.1113 890.8459,906.084 885.7971,906.084 L885.7971,906.084 L885.7971,906.084 Z M178.4592,101.2866 C193.6301,101.8267 212.8166,104.7856 239.0012,110.7271 C251.5417,114.2026 264.1759,117.8193 277.1388,122.3281 L282.5168,124.4185 C293.8127,128.8804 305.7189,133.624 317.6725,139.2134 C350.2214,155.2764 377.6506,171.9028 401.8156,190.1968 C427.3429,208.585 454.0676,232.8677 483.0471,264.2656 L491.2429,274.0347 C501.1296,285.8003 511.3215,297.9888 520.4333,312.0557 L525.8581,319.9932 C529.7326,325.606 533.631,331.2183 537.2248,337.1362 L552.3244,364.2368 C574.4699,407.5415 588.1613,448.709 594.4084,490.6748 L606.009,540.4844 L609.2267,548.8683 C610.2132,551.4044 611.176,554.1993 612.1154,556.9938 C613.3127,560.4693 614.4631,564.0392 616.1076,567.4669 C628.5773,596.6349 644.5705,624.0646 657.1574,644.8009 L658.9885,647.5011 C674.8879,670.9845 689.9171,693.131 706.6144,712.505 C724.5099,734.9083 743.3205,754.4708 759.43,770.6749 C764.2679,775.6534 769.012,779.9513 773.7083,784.131 C777.7718,787.795 781.7874,791.4112 785.6389,795.2149 C789.678,798.879 794.3274,802.6134 798.8597,806.253 C802.7112,809.3525 806.4222,812.3594 810.0618,815.506 C825.8899,827.5294 839.7688,837.8858 851.8167,845.0021 C854.9397,846.7862 857.8284,848.6886 860.552,850.4493 C863.4407,852.3282 866.0706,854.1134 868.6077,855.4044 L882.0638,862.4737 C950.4729,787.7481 980.6253,685.1701 967.1467,571.7893 C952.5862,449.3903 888.1935,325.653 785.8498,223.2863 C668.6642,106.0537 522.6408,38.8428 385.3532,38.8428 C306.8698,38.8428 236.3473,60.3071 178.4592,101.2866 L178.4592,101.2866 L178.4592,101.2866 Z" id="Shape"></path>
                    <path d="M846.0392,909.3477 C841.5529,909.3477 836.8332,909.207 831.7844,908.6895 C816.6838,908.5957 796.8869,905.6836 769.1291,899.3906 C756.6115,895.9141 743.9777,892.3457 730.9904,887.8359 L723.9221,885.0645 C713.1662,880.8145 701.7775,876.3291 690.4103,870.9277 C658.002,855.0059 630.5499,838.332 606.2443,819.9199 C580.4347,801.3682 553.757,776.9922 525.0129,745.7812 L517.8268,737.21 C507.6345,725.0449 497.0431,712.4569 487.6496,697.9453 L482.7883,690.8994 C478.7492,685.0518 474.6159,679.1338 470.8586,672.9102 L455.8054,645.7168 C452.0715,639.2812 448.9479,632.2363 445.9889,625.3789 C444.674,622.4199 443.3825,619.3906 441.9968,616.4551 L435.4919,601.5664 C433.6833,596.7285 432.3683,592.7363 431.0768,588.6973 L421.3776,556.8291 C420.697,554.3633 420.3444,552.6489 420.0158,550.9585 C419.9924,550.6997 419.5461,548.5864 419.4758,548.3281 L413.675,517.6816 C410.1994,494.3384 402.8019,468.7407 391.5768,441.2173 C380.3512,414.3521 364.8517,387.7681 351.2077,364.9883 L349.0705,361.8887 C333.2658,338.6157 318.3771,316.5879 301.7736,297.3311 C284.3019,275.4673 266.0783,256.4687 248.9113,239.1611 C244.1208,234.1826 239.3766,229.9556 234.7267,225.8223 C230.6174,222.0884 226.5309,218.4248 222.6325,214.5967 C219.0163,211.3325 214.6716,207.8569 210.4211,204.4048 C206.194,201.0229 202.0607,197.665 198.1154,194.1895 C182.2404,182.2827 168.2438,171.9028 156.6662,164.9985 C153.8718,163.355 151.1945,161.5698 148.5876,159.832 C145.7931,158.0005 143.1862,156.1685 140.4621,154.877 L125.4792,147.1509 C117.1193,142.853 112.7277,140.2466 112.7277,140.2466 C106.0348,136.2544 102.3478,128.6455 103.4045,120.8955 C104.4611,113.1929 110.0036,106.8521 117.4948,104.7856 C118.5046,104.5273 119.632,104.3159 120.7121,104.1987 L120.7121,104.1987 C123.4831,103.7993 127.7101,103.2124 134.0275,102.5547 L140.0158,101.9912 C149.0807,100.9814 160.9636,99.8071 175.9933,101.2163 C191.4929,101.498 211.384,104.457 239.0012,110.7271 C251.5417,114.2026 264.1759,117.8193 277.1388,122.3281 L282.5168,124.4185 C293.8127,128.8804 305.7189,133.624 317.6725,139.2134 C350.2214,155.2764 377.6506,171.9028 401.8156,190.1968 C427.3429,208.585 454.0676,232.8677 483.0471,264.2656 L491.2429,274.0347 C501.1296,285.8003 511.3215,297.9888 520.4333,312.0557 L525.8581,319.9932 C529.7326,325.606 533.631,331.2183 537.2248,337.1362 L552.3244,364.2368 C574.3996,407.4238 588.0431,448.4507 594.3849,490.2993 L606.009,540.4844 L609.2267,548.8683 C610.2132,551.4044 611.176,554.1993 612.1154,556.9938 C613.3127,560.4693 614.4631,564.0392 616.1076,567.4669 C628.5773,596.6349 644.5705,624.0646 657.1574,644.8009 L658.9885,647.5011 C674.8879,670.9845 689.9171,693.131 706.6144,712.505 C724.5099,734.9083 743.3205,754.4708 759.43,770.6749 C764.2679,775.6534 769.012,779.9513 773.7083,784.131 C777.7718,787.795 781.7874,791.4112 785.6389,795.2149 C789.678,798.879 794.3274,802.6134 798.8597,806.253 C802.7112,809.3525 806.4222,812.3594 810.0618,815.506 C825.8899,827.506 839.7688,837.8858 851.8167,845.0021 C854.9397,846.7862 857.8284,848.6886 860.552,850.4493 C863.4407,852.3282 866.0706,854.1134 868.6077,855.4044 L894.9798,869.4718 C902.1429,873.4171 906.0882,881.5196 904.7259,889.5978 C903.4105,897.7228 897.1409,904.088 889.0618,905.5899 C888.5921,905.6368 888.0989,905.7306 887.5589,905.7774 C885.093,906.1778 880.6546,906.7882 874.1966,907.4689 L869.1702,907.9386 C862.8537,908.5957 855.0568,909.3477 846.0392,909.3477 L846.0392,909.3477 L846.0392,909.3477 Z M191.5871,141.3735 C200.9333,147.8086 211.1725,155.4644 222.6799,164.1533 C227.3766,168.2158 231.0402,171.1514 234.7507,174.1572 C239.5881,178.0088 244.4728,181.9541 249.3107,186.3691 C253.4201,190.3613 257.0133,193.6021 260.6769,196.8901 C266.0075,201.6572 271.4557,206.5654 276.7165,212.0605 C294.4235,229.9087 313.5392,249.7759 331.6926,272.5552 C349.235,292.9395 365.486,316.9165 381.2204,340.0483 L383.9679,344.1113 C398.9035,368.981 415.2013,396.9971 427.4601,426.3755 C439.9304,456.9517 448.173,485.5083 452.0246,511.5288 L458.154,543.5371 C458.3415,544.3594 458.4826,545.2515 458.7878,546.2852 L468.0641,576.7676 C469.1911,580.2891 470.3185,583.8125 471.5397,587.0996 L477.3874,600.4395 C478.7258,603.21 480.1584,606.5449 481.6144,609.8789 C484.0803,615.5859 486.5461,621.3164 489.5754,626.5059 L504.4406,653.3721 C507.423,658.3037 511.0632,663.5175 514.6564,668.6836 L520.0812,676.5273 C528.3708,689.3965 537.6934,700.4805 547.5568,712.1992 L554.2502,720.207 C580.5529,748.7403 605.3283,771.4023 629.3283,788.6875 C652.0138,805.877 677.4006,821.2363 707.3185,835.96 C717.5822,840.7979 728.1496,844.9551 738.1535,848.9004 L744.5412,851.4355 C755.9308,855.3809 767.7433,858.6934 778.6398,861.7227 C793.8342,865.1738 806.3283,867.4756 816.966,868.7441 C807.3849,862.1914 797.1213,854.4181 785.5676,845.6113 C781.34,841.9961 777.9357,839.2715 774.507,836.5 C769.34,832.3672 764.1271,828.1172 758.9601,823.4434 C754.9679,819.5449 751.3752,816.3047 747.7111,813.0156 C742.381,808.2256 736.9553,803.3408 731.6955,797.8926 C714.9982,781.1016 695.2951,760.5762 676.7189,737.3037 C659.0119,716.7793 642.6916,692.6836 626.84,669.3418 L624.4435,665.7949 C610.6584,643.1094 593.7971,614.1074 580.881,583.6953 C578.8382,579.6797 577.0295,574.5596 575.3156,569.416 C574.5412,567.1855 573.8127,564.9551 572.9435,562.7236 L562.5168,530.1279 C562.0002,528.6016 561.507,526.2529 561.0842,523.8345 C561.0138,523.5996 560.6613,521.6738 560.6144,521.4857 L556.9279,501.1723 C556.6691,500.3969 556.4806,499.5751 556.34,498.7299 C556.2228,497.9076 556.0353,496.9921 555.965,496.1464 C555.8713,495.6767 555.7765,495.2777 555.7531,495.0663 L555.7765,495.0663 L555.7765,494.996 C550.0471,457.7738 537.6701,420.9271 518.0617,382.5307 L503.6423,356.6278 C500.8478,352.0722 497.3957,347.1171 493.967,342.162 L487.9787,333.3788 C480.0407,321.12 470.9997,310.3646 461.465,298.9984 L453.8093,289.7924 C427.3195,261.1889 402.5202,238.5507 378.7546,221.454 C356.1862,204.3578 330.8,188.9994 300.8107,174.2514 C289.9377,169.0849 278.8063,164.7636 268.2858,160.5834 L263.589,158.7284 C252.2223,154.8065 240.4338,151.4247 229.4899,148.3954 C214.6012,145.0371 202.2018,142.7358 191.5871,141.3735 L191.5871,141.3735 L191.5871,141.3735 Z" id="Shape"></path>
                </g>
            </g>
        </g>
    </g>
</svg>