<?xml version="1.0" encoding="utf-8"?>
<!-- Generator: Adobe Illustrator 17.1.0, SVG Export Plug-In . SVG Version: 6.00 Build 0)  -->
<!DOCTYPE svg PUBLIC "-//W3C//DTD SVG 1.1//EN" "http://www.w3.org/Graphics/SVG/1.1/DTD/svg11.dtd">
<svg version="1.1" id="coffee-bean" xmlns="http://www.w3.org/2000/svg" xmlns:xlink="http://www.w3.org/1999/xlink" x="0px"
	 y="0px" viewBox="0 0 1009.1569 1010" enable-background="new 0 0 1009.1569 1010" xml:space="preserve">
<g id="coffee-bean-coffee-bean">
	<g id="coffee-bean-color">
		<path fill="#E3B08D" d="M794.4924,900.7988c-8.3145-1.502-15.3828-2.9121-23.3672-4.7197
			c-13.4571-3.6865-25.9971-7.2334-37.9737-11.4131l-7.538-2.959c-11.1319-4.3447-22.2168-8.7129-33.3477-14.0195
			c-32.1729-15.7812-59.6494-32.4316-84.2373-51.0078c-25.3857-18.294-51.5-42.1309-79.5166-72.5186l-7.7026-9.1357
			c-9.6285-11.459-20.5723-24.4463-30.2945-39.4297l-4.7676-6.9043c-4.0156-5.7764-8.0312-11.6006-11.2719-16.9785l-15.6641-28.2744
			c-3.3345-5.5655-6.3403-12.4229-9.1821-18.9053l-10.145-22.8965c-2.3955-6.3174-3.7339-10.3799-5.0259-14.4433l-6.8335-22.2149
			l-9.9341-45.9116c-3.8745-25.5503-11.2485-51.1714-22.7324-79.4229c-11.3428-27.0302-27.2412-54.2714-41.2612-77.6616
			l-1.5972-2.2778c-15.1704-22.2861-30.8106-45.3477-46.9678-64.1348c-17.9184-22.4038-36.2124-41.4726-53.3789-58.8042
			c-4.9316-5.0722-9.6758-9.3467-14.3491-13.4795c-4.626-4.2036-8.4307-7.6557-12.8457-12.0239
			c-3.0059-2.6304-7.4209-6.1528-11.6948-9.6284c-4.1568-3.3115-8.1021-6.4815-13.3623-11.0376l-27.8755-20.6191l20.8535-49.1285
			l1.8554,0.564l3.8277-14.9829l17.8716,3.311c6.3637,1.1978,13.2446,2.5835,21.018,4.3447
			c13.4326,3.6636,25.9732,7.2564,37.9034,11.3663l5.8002,2.2544c11.4131,4.5087,23.3433,9.2055,34.9444,14.6538
			c32.4785,16.0161,59.9311,32.6665,84.331,51.1718c5.7535,4.1333,12.3995,9.1822,19.0689,14.6538
			c19.5859,15.9927,39.3125,34.8272,60.354,57.5596l9.0884,10.8028c10.2622,12.2583,19.9145,23.8359,28.9555,37.7622l5.4248,7.9843
			c3.6636,5.1665,7.4683,10.7325,10.5445,15.711l15.2412,27.3589c21.9814,42.8818,35.5547,83.4619,41.7783,124.4887l0.5635,3.2876
			l0.3291,1.2681l4.6963,25.3393l10.4503,32.5254l1.9023,5.3781c1.4326,4.2275,2.4424,7.5146,3.6875,9.957
			c13.1504,30.623,29.6133,58.8506,42.4824,80.1279l1.4317,1.9727c16.3222,24.0469,31.3984,46.2637,47.1797,64.5097
			c18.6933,23.3672,38.2793,43.6094,53.3086,58.7344c5.1669,5.4004,10.0039,9.7217,14.748,13.9727l1.9258,1.7617
			c4.039,3.6621,7.0918,6.4805,10.4267,9.7217c3.4756,3.1006,8.126,6.8105,12.6582,10.4736l1.6202,1.3154
			c3.4755,2.8174,6.7636,5.4483,10.8027,9.0176l25.1279,18.5996l-16.6972,50.1143l-0.587-0.0938l-3.5459,16.3457L794.4924,900.7988z
			"/>
		<path fill="#A37458" d="M622.8713,990.6016c-142.4312,0-293.3863-69.3243-414.188-190.1729
			C103.2165,694.9863,36.8273,567.1855,21.821,440.4658C7.8478,323.1401,39.1052,215.231,109.7687,136.6064l11.9063-13.1743
			l27.7344,14.1841c2.4897,1.1743,5.5424,3.147,8.6894,5.2134c3.5225,2.3955,5.9883,3.9927,8.4775,5.4956
			c12.4703,7.4209,28.0166,19.022,40.5098,28.3218l2.3486,1.7378c5.3072,4.6025,9.2764,7.7964,13.2452,11.0371
			c4.4853,3.5698,9.0644,7.2334,12.6811,10.4741c4.6499,4.5557,8.5484,8.0312,12.4937,11.5542
			c5.1431,4.6025,10.0508,9.041,15.0766,14.231c17.378,17.5664,36.1416,37.1518,54.1304,59.6494
			c16.6504,19.351,31.8208,41.6372,47.8369,65.2622l2.1372,3.0761c14.9126,24.8697,30.8579,52.2754,42.4356,80.0103
			c11.8593,29.1436,19.7031,56.3853,23.437,81.2075l6.1528,32.2905c0.2817,1.3155,0.54,2.6304,1.0806,4.8379l9.4638,30.8579
			c1.1036,3.4756,2.3482,7.2793,4.1802,12.1407c0,0,8.5952,19.375,9.9805,22.498c2.7949,6.4356,5.5659,12.8457,8.7832,18.3418
			l15.3818,27.7344c3.1001,5.1894,6.9751,10.7558,10.8496,16.2969l4.8145,6.9277c9.2056,14.2324,19.4214,26.3496,29.2612,38.0684
			l7.1153,8.5009c27.2412,29.5665,52.8154,52.9327,77.5439,70.7334c23.7656,18.0128,50.2559,34.0529,81.4902,49.3633
			c10.8028,5.167,21.9571,9.5352,32.4786,13.6914l6.7158,2.6074c11.7422,4.0625,23.9775,7.5381,36.2589,10.92
			c4.955,1.1035,18.8115,3.8984,18.8115,3.8984c5.3545,0.9863,16.2275,2.7481,16.2275,2.7481
			c3.9453,0.539,7.7969,1.0566,11.3184,1.3378l65.873,5.918L831.5021,931C771.5715,970.5469,701.4006,990.6016,622.8713,990.6016
			L622.8713,990.6016z"/>
		<path fill="#A37458" d="M859.5187,872.5254c-2.5361-1.2695-5.5185-3.124-8.6416-5.167c-3.5-2.3018-6.1299-3.9932-8.9707-5.7061
			c-13.1279-7.6796-28.3691-19.1406-41.826-29.332l-2.794-2.1601c-3.4521-3.0059-7.0693-5.918-10.7324-8.877
			c-5.3545-4.2754-9.9102-8.0322-13.8086-11.5312c-4.3447-4.2266-8.1494-7.6329-11.9766-11.1075
			c-5.0262-4.5096-10.0986-9.1122-15.3349-14.537c-16.2744-16.3681-35.625-36.4238-54.084-59.5791
			c-16.8145-19.4912-32.1026-42.0361-48.2832-65.8955l-1.7852-2.584c-13.6671-22.5449-30.1992-50.9365-43.0683-81.1601
			c-1.3633-2.6309-2.795-6.6231-4.1104-10.5215c-1.2451-3.6631-2.043-6.1055-2.959-8.2896l-3.7568-9.8398l-11.9775-51.8057
			c-1.4561-9.1587-3.0997-16.5561-4.6963-24.0239l-1.3868-6.9277c-1.5722-6.3877-3.5449-12.7989-5.4941-19.21
			c0,0-2.584-9.1118-3.0293-10.4268c-1.5976-4.8378-3.5469-9.7226-5.4726-14.6074l-3.6397-9.5342
			c-0.7275-1.9726-1.456-3.9453-2.3018-5.9653c-4.2968-10.145-9.0644-20.3838-14.4189-30.7402l-14.7715-26.5371
			c-2.959-4.8374-6.6225-10.1685-10.2861-15.4287l-5.4717-7.9141c-8.7358-13.5034-18.5288-25.1987-27.9927-36.5181l-8.4072-10.0039
			c-27.3354-29.5195-52.9097-52.8628-77.4741-70.5224c-23.648-17.9185-50.1382-34.0284-81.5596-49.4341
			c-11.249-5.3071-22.897-9.8867-33.8877-14.231l-5.1665-2.02c-11.7417-4.0859-23.9771-7.5615-36.2827-10.9434
			c-5.002-1.1269-18.5288-3.8276-18.5288-3.8276c-5.5186-1.0571-9.1587-1.7143-12.6343-2.2309l-0.3291-23.461l-3.2642,22.8736
			c-4.1801-0.6338-8.1254-1.127-11.7417-1.4561l-65.145-6.3169l54.6241-35.9775c59.9545-39.5474,130.1718-59.626,208.6787-59.626
			c142.4306,0,293.4087,69.3013,414.2348,190.103C905.008,314.9912,971.3732,442.8379,986.4728,569.5107
			c13.9268,117.3018-17.33,225.212-87.9941,303.7891l-12,13.3389L859.5187,872.5254z"/>
	</g>
	<g id="coffee-bean-line">
		<g>
			<path fill="#7A5742" d="M622.8713,1010c-147.5274,0-303.4844-71.3672-427.9029-195.833
				C-26.7908,592.4551-64.6942,282.9355,108.6647,109.5767c5.4717-5.4488,13.6206-7.1392,20.7129-4.4151
				c1.5972,0.6104,3.0767,1.4561,4.4619,2.395c1.6441,0.9395,4.8379,2.7242,9.5347,5.1197l14.2314,7.3506
				c3.7808,1.7612,8.0547,4.5322,12.4698,7.4677c2.0903,1.3858,4.1801,2.795,6.458,4.1568
				c13.2685,7.8906,28.1343,18.9048,46.1465,32.5019c4.6967,4.0625,8.3603,6.9981,12.0708,10.0039
				c4.8374,3.8516,9.7221,7.7969,14.56,12.2119c4.1094,3.9922,7.7026,7.233,11.3662,10.521
				c5.3306,4.7671,10.7788,9.6753,16.0396,15.1704c17.707,17.8482,36.8227,37.7154,54.9761,60.4947
				c17.5424,20.3843,33.7934,44.3613,49.5278,67.4931l2.7475,4.063c14.9356,24.8697,31.2334,52.8858,43.4922,82.2642
				c12.4703,30.5762,20.7129,59.1328,24.5645,85.1533l6.1294,32.0083c0.1875,0.8223,0.3286,1.7144,0.6338,2.7481l9.2763,30.4824
				c1.127,3.5215,2.2544,7.0449,3.4756,10.332l5.8477,13.3399c1.3384,2.7705,2.771,6.1054,4.227,9.4394
				c2.4659,5.707,4.9317,11.4375,7.961,16.627l14.8652,26.8662c2.9824,4.9316,6.6226,10.1454,10.2158,15.3115l5.4248,7.8437
				c8.2896,12.8692,17.6122,23.9532,27.4756,35.6954l6.6934,7.9843c26.3027,28.5333,51.0781,51.1953,75.0781,68.4805
				c22.6855,17.1895,48.0723,32.5488,77.9902,47.2725c10.2637,4.8379,20.8311,8.9951,30.835,12.9404l6.3877,2.5351
				c11.3896,3.9454,23.2021,7.2579,34.0986,10.2872c24.0713,5.4472,41.3555,8.0546,55.2344,8.2187
				c5.2842,0.4463,8.8301,0.5635,12.165,0.5635c7.4912,0,13.9493-0.6807,19.1856-1.2217l5.3789-0.4922
				c6.082-0.6113,9.8398-1.1504,11.0137-1.3623c3.2636-0.5869,7.0684-0.3525,10.2628,0.7744
				c6.2704,2.2783,11.1786,7.6562,12.6337,14.1377c1.4336,6.5049-0.3046,13.3623-4.9785,18.0362
				C827.839,972.0967,732.1887,1010,622.8713,1010L622.8713,1010z M126.1369,147.4795
				C-20.098,307.3823,20.5529,584.8457,222.3976,786.7148c117.2325,117.2315,263.1856,184.4434,400.4737,184.4434
				c78.4824,0,149.0057-21.4648,206.8934-62.4922c-14.8427-0.375-34.0986-3.2637-60.6357-9.2754
				c-12.5176-3.4765-25.1514-7.0449-38.1387-11.5547l-7.0683-2.7714c-10.7559-4.25-22.1446-8.7354-33.5118-14.1368
				c-32.4083-15.9218-59.8604-32.5957-84.166-51.0078c-25.8096-18.5517-52.4873-42.9277-81.2314-74.1387l-7.1861-8.5712
				c-10.1923-12.1651-20.7837-24.7531-30.1772-39.2647l-4.8613-7.0459c-4.0391-5.8476-8.1724-11.7656-11.9297-17.9892
				l-15.0532-27.1934c-3.7339-6.4356-6.834-13.4805-9.8165-20.3379c-1.3149-2.959-2.6064-5.9883-3.9921-8.9238l-6.5049-14.8887
				c-1.8086-4.8379-3.1236-8.8301-4.4151-12.8691l-9.6992-31.8682c-0.6806-2.4658-1.0332-4.1802-1.3618-5.8706
				c-0.0234-0.2588-0.4697-2.3721-0.54-2.6304l-5.8008-30.6465c-3.4756-23.3432-10.8731-48.9409-22.0982-76.4643
				c-11.2256-26.8652-26.7251-53.4492-40.3691-76.229l-2.1372-3.0996c-15.8047-23.273-30.6934-45.3008-47.2969-64.5576
				c-17.4717-21.8638-35.6953-40.8624-52.8623-58.17c-4.7905-4.9785-9.5347-9.2055-14.1846-13.3388
				c-4.1093-3.7339-8.1958-7.3975-12.0942-11.2256c-3.6162-3.2642-7.9609-6.7398-12.2114-10.1919
				c-4.2271-3.3819-8.3604-6.7398-12.3057-10.2153c-15.875-11.9068-29.8716-22.2867-41.4492-29.191
				c-2.7944-1.6435-5.4717-3.4287-8.0786-5.1665c-2.7945-1.8315-5.4014-3.6635-8.1255-4.955L126.1369,147.4795L126.1369,147.4795z"
				/>
		</g>
		<g>
			<path fill="#7A5742" d="M885.7971,906.084c-2.2071,0-4.461-0.377-6.5987-1.1514l-0.4697-0.165
				c-1.7617-0.6328-3.3818-1.4785-4.8379-2.5352l-23.084-12.3066c-3.4765-1.7373-7.3515-4.2266-11.4609-6.9278
				c-2.2774-1.4785-4.6973-3.0527-7.2324-4.5546c-13.9024-8.126-28.674-19.211-46.5459-32.8321
				c-4.2276-3.6152-7.6319-6.3398-11.0606-9.1113c-5.167-4.1328-10.3799-8.3828-15.5469-13.0566
				c-3.9922-3.8985-7.5849-7.1387-11.249-10.4278c-5.3301-4.79-10.7558-9.6748-16.0156-15.123
				c-16.6973-16.791-36.4004-37.3164-54.9766-60.5889c-17.707-20.5244-34.0273-44.6201-49.8789-67.9619l-2.3965-3.5469
				c-13.7851-22.6855-30.6464-51.6875-43.5625-82.0996c-2.0428-4.0156-3.8515-9.1357-5.5654-14.2793
				c-0.7744-2.2305-1.5029-4.4609-2.3721-6.6924l-10.4267-32.5957c-0.5166-1.5263-1.0098-3.875-1.4326-6.2934
				c-0.0704-0.2349-0.4229-2.1607-0.4698-2.3488l-3.6865-20.3134c-0.2588-0.7754-0.4473-1.5972-0.5879-2.4424
				c-0.1875-1.2446-0.375-2.4658-0.5635-3.7339c-5.7294-37.2222-18.1064-74.0689-37.7148-112.4653l-14.4194-25.9029
				c-2.7945-4.5556-6.2466-9.5107-9.6753-14.4658l-5.9883-8.7832c-7.938-12.2588-16.979-23.0142-26.5137-34.3804l-7.6557-9.206
				c-26.4898-28.6035-51.2891-51.2417-75.0547-68.3384c-22.5684-17.0962-47.9546-32.4546-77.9439-47.2026
				c-10.873-5.1665-22.0044-9.4878-32.5249-13.668l-4.6968-1.855c-11.3667-3.9219-23.1552-7.3037-34.0991-10.333
				c-24.0708-5.4248-41.5195-8.102-55.7041-8.4072c-5.0722-0.4229-8.4775-0.5874-11.6714-0.5874
				c-7.0923,0-13.0337,0.7046-17.9887,1.1977l-6.5992,0.6577c-5.1665,0.5401-8.9238,1.0567-10.685,1.315
				c-0.4697,0.0234-2.1607,0.2583-2.607,0.2817c-2.8178,0.1177-5.6596-0.2583-8.2895-1.2446
				c-6.1528-2.3716-10.9204-7.7495-12.3057-14.1841c-1.3388-6.4346,0.399-13.2217,5.0254-17.8476
				C180.3849,37.9033,276.0588,0,385.3532,0c147.5269,0,303.5073,71.3442,427.9497,195.8096
				c108.5195,108.4961,176.834,240.3823,192.4277,371.3759c15.5459,130.8536-22.1464,249.1661-106.1953,333.1915
				C895.8254,904.1113,890.8459,906.084,885.7971,906.084L885.7971,906.084z M178.4592,101.2866
				c15.1709,0.5401,34.3574,3.499,60.542,9.4405c12.5405,3.4755,25.1747,7.0922,38.1376,11.601l5.378,2.0904
				c11.2959,4.4619,23.2021,9.2055,35.1557,14.7949c32.5489,16.063,59.9781,32.6894,84.1431,50.9834
				c25.5273,18.3882,52.252,42.6709,81.2315,74.0688l8.1958,9.7691c9.8867,11.7656,20.0786,23.9541,29.1904,38.021l5.4248,7.9375
				c3.8745,5.6128,7.7729,11.2251,11.3667,17.143l15.0996,27.1006c22.1455,43.3047,35.8369,84.4722,42.084,126.438l11.6006,49.8096
				l3.2177,8.3839c0.9865,2.5361,1.9493,5.331,2.8887,8.1255c1.1973,3.4755,2.3477,7.0454,3.9922,10.4731
				c12.4697,29.168,28.4629,56.5977,41.0498,77.334l1.8311,2.7002c15.8994,23.4834,30.9286,45.6299,47.6259,65.0039
				c17.8955,22.4033,36.7061,41.9658,52.8156,58.1699c4.8379,4.9785,9.582,9.2764,14.2783,13.4561
				c4.0635,3.664,8.0791,7.2802,11.9306,11.0839c4.0391,3.6641,8.6885,7.3985,13.2208,11.0381
				c3.8515,3.0995,7.5625,6.1064,11.2021,9.253c15.8281,12.0234,29.707,22.3798,41.7549,29.4961
				c3.123,1.7841,6.0117,3.6865,8.7353,5.4472c2.8887,1.8789,5.5186,3.6641,8.0557,4.9551l13.4561,7.0693
				c68.4091-74.7256,98.5615-177.3036,85.0829-290.6844c-14.5605-122.399-78.9532-246.1363-181.2969-348.503
				C668.6642,106.0537,522.6408,38.8428,385.3532,38.8428C306.8698,38.8428,236.3473,60.3071,178.4592,101.2866L178.4592,101.2866z"
				/>
		</g>
		<g>
			<path fill="#7A5742" d="M846.0392,909.3477c-4.4863,0-9.206-0.1407-14.2548-0.6582
				c-15.1006-0.0938-34.8975-3.0059-62.6553-9.2989c-12.5176-3.4765-25.1514-7.0449-38.1387-11.5547l-7.0683-2.7714
				c-10.7559-4.25-22.1446-8.7354-33.5118-14.1368c-32.4083-15.9218-59.8604-32.5957-84.166-51.0078
				c-25.8096-18.5517-52.4873-42.9277-81.2314-74.1387l-7.1861-8.5712c-10.1923-12.1651-20.7837-24.7531-30.1772-39.2647
				l-4.8613-7.0459c-4.0391-5.8476-8.1724-11.7656-11.9297-17.9892l-15.0532-27.1934c-3.7339-6.4356-6.8575-13.4805-9.8165-20.3379
				c-1.3149-2.959-2.6064-5.9883-3.9921-8.9238l-6.5049-14.8887c-1.8086-4.8379-3.1236-8.8301-4.4151-12.8691l-9.6992-31.8682
				c-0.6806-2.4658-1.0332-4.1802-1.3618-5.8706c-0.0234-0.2588-0.4697-2.3721-0.54-2.6304l-5.8008-30.6465
				c-3.4756-23.3432-10.8731-48.9409-22.0982-76.4643c-11.2256-26.8652-26.7251-53.4492-40.3691-76.229l-2.1372-3.0996
				c-15.8047-23.273-30.6934-45.3008-47.2969-64.5576c-17.4717-21.8638-35.6953-40.8624-52.8623-58.17
				c-4.7905-4.9785-9.5347-9.2055-14.1846-13.3388c-4.1093-3.7339-8.1958-7.3975-12.0942-11.2256
				c-3.6162-3.2642-7.9609-6.7398-12.2114-10.1919c-4.2271-3.3819-8.3604-6.7398-12.3057-10.2153
				c-15.875-11.9068-29.8716-22.2867-41.4492-29.191c-2.7944-1.6435-5.4717-3.4287-8.0786-5.1665
				c-2.7945-1.8315-5.4014-3.6635-8.1255-4.955l-14.9829-7.7261c-8.3599-4.2979-12.7515-6.9043-12.7515-6.9043
				c-6.6929-3.9922-10.3799-11.6011-9.3232-19.3511c1.0566-7.7026,6.5991-14.0434,14.0903-16.1099
				c1.0098-0.2583,2.1372-0.4697,3.2173-0.5869l0,0c2.771-0.3994,6.998-0.9863,13.3154-1.644l5.9883-0.5635
				c9.0649-1.0098,20.9478-2.1841,35.9775-0.7749c15.4996,0.2817,35.3907,3.2407,63.0079,9.5108
				c12.5405,3.4755,25.1747,7.0922,38.1376,11.601l5.378,2.0904c11.2959,4.4619,23.2021,9.2055,35.1557,14.7949
				c32.5489,16.063,59.9781,32.6894,84.1431,50.9834c25.5273,18.3882,52.252,42.6709,81.2315,74.0688l8.1958,9.7691
				c9.8867,11.7656,20.0786,23.9541,29.1904,38.021l5.4248,7.9375c3.8745,5.6128,7.7729,11.2251,11.3667,17.143l15.0996,27.1006
				c22.0752,43.187,35.7187,84.2139,42.0605,126.0625l11.6241,50.1851l3.2177,8.3839c0.9865,2.5361,1.9493,5.331,2.8887,8.1255
				c1.1973,3.4755,2.3477,7.0454,3.9922,10.4731c12.4697,29.168,28.4629,56.5977,41.0498,77.334l1.8311,2.7002
				c15.8994,23.4834,30.9286,45.6299,47.6259,65.0039c17.8955,22.4033,36.7061,41.9658,52.8156,58.1699
				c4.8379,4.9785,9.582,9.2764,14.2783,13.4561c4.0635,3.664,8.0791,7.2802,11.9306,11.0839
				c4.0391,3.6641,8.6885,7.3985,13.2208,11.0381c3.8515,3.0995,7.5625,6.1064,11.2021,9.253
				c15.8281,12,29.707,22.3798,41.7549,29.4961c3.123,1.7841,6.0117,3.6865,8.7353,5.4472
				c2.8887,1.8789,5.5186,3.6641,8.0557,4.9551l26.3721,14.0674c7.1631,3.9453,11.1084,12.0478,9.7461,20.126
				c-1.3154,8.125-7.585,14.4902-15.6641,15.9921c-0.4697,0.0469-0.9629,0.1407-1.5029,0.1875
				c-2.4659,0.4004-6.9043,1.0108-13.3623,1.6915l-5.0264,0.4697C862.8537,908.5957,855.0568,909.3477,846.0392,909.3477
				L846.0392,909.3477z M191.5871,141.3735c9.3462,6.4351,19.5854,14.0909,31.0928,22.7798
				c4.6967,4.0625,8.3603,6.9981,12.0708,10.0039c4.8374,3.8516,9.7221,7.7969,14.56,12.2119
				c4.1094,3.9922,7.7026,7.233,11.3662,10.521c5.3306,4.7671,10.7788,9.6753,16.0396,15.1704
				c17.707,17.8482,36.8227,37.7154,54.9761,60.4947c17.5424,20.3843,33.7934,44.3613,49.5278,67.4931l2.7475,4.063
				c14.9356,24.8697,31.2334,52.8858,43.4922,82.2642c12.4703,30.5762,20.7129,59.1328,24.5645,85.1533l6.1294,32.0083
				c0.1875,0.8223,0.3286,1.7144,0.6338,2.7481l9.2763,30.4824c1.127,3.5215,2.2544,7.0449,3.4756,10.332l5.8477,13.3399
				c1.3384,2.7705,2.771,6.1054,4.227,9.4394c2.4659,5.707,4.9317,11.4375,7.961,16.627l14.8652,26.8662
				c2.9824,4.9316,6.6226,10.1454,10.2158,15.3115l5.4248,7.8437c8.2896,12.8692,17.6122,23.9532,27.4756,35.6719l6.6934,8.0078
				c26.3027,28.5333,51.0781,51.1953,75.0781,68.4805c22.6855,17.1895,48.0723,32.5488,77.9902,47.2725
				c10.2637,4.8379,20.8311,8.9951,30.835,12.9404l6.3877,2.5351c11.3896,3.9454,23.2021,7.2579,34.0986,10.2872
				c15.1944,3.4511,27.6885,5.7529,38.3262,7.0214c-9.5811-6.5527-19.8447-14.326-31.3984-23.1328
				c-4.2276-3.6152-7.6319-6.3398-11.0606-9.1113c-5.167-4.1328-10.3799-8.3828-15.5469-13.0566
				c-3.9922-3.8985-7.5849-7.1387-11.249-10.4278c-5.3301-4.79-10.7558-9.6748-16.0156-15.123
				c-16.6973-16.791-36.4004-37.3164-54.9766-60.5889c-17.707-20.5244-34.0273-44.6201-49.8789-67.9619l-2.3965-3.5469
				c-13.7851-22.6855-30.6464-51.6875-43.5625-82.0996c-2.0428-4.0156-3.8515-9.1357-5.5654-14.2793
				c-0.7744-2.2305-1.5029-4.4609-2.3721-6.6924l-10.4267-32.5957c-0.5166-1.5263-1.0098-3.875-1.4326-6.2934
				c-0.0704-0.2349-0.4229-2.1607-0.4698-2.3488l-3.6865-20.3134c-0.2588-0.7754-0.4473-1.5972-0.5879-2.4424
				c-0.1172-0.8223-0.3047-1.7378-0.375-2.5835c-0.0937-0.4697-0.1885-0.8687-0.2119-1.0801h0.0234c0-0.0234,0-0.0469,0-0.0703
				c-5.7294-37.2222-18.1064-74.0689-37.7148-112.4653l-14.4194-25.9029c-2.7945-4.5556-6.2466-9.5107-9.6753-14.4658
				l-5.9883-8.7832c-7.938-12.2588-16.979-23.0142-26.5137-34.3804l-7.6557-9.206c-26.4898-28.6035-51.2891-51.2417-75.0547-68.3384
				c-22.5684-17.0962-47.9546-32.4546-77.9439-47.2026c-10.873-5.1665-22.0044-9.4878-32.5249-13.668l-4.6968-1.855
				c-11.3667-3.9219-23.1552-7.3037-34.0991-10.333C214.6012,145.0371,202.2018,142.7358,191.5871,141.3735L191.5871,141.3735z"/>
		</g>
	</g>
</g>
</svg>
