<?xml version="1.0" encoding="utf-8"?>
<!-- Generator: Adobe Illustrator 17.1.0, SVG Export Plug-In . SVG Version: 6.00 Build 0)  -->
<!DOCTYPE svg PUBLIC "-//W3C//DTD SVG 1.1//EN" "http://www.w3.org/Graphics/SVG/1.1/DTD/svg11.dtd">
<svg version="1.1" id="sugar-pot" xmlns="http://www.w3.org/2000/svg" xmlns:xlink="http://www.w3.org/1999/xlink" x="0px" y="0px"
	 viewBox="0 0 625.0113 1009.9977" enable-background="new 0 0 625.0113 1009.9977" xml:space="preserve">
<g id="sugar-pot-sugar-pot">
	<g id="sugar-pot-color">
		<path fill="#FCF9F8" d="M136.4948,346.0661c-1.0889,36.9053-8.6094,184.1455-59.1182,260.2773
			C-8.0638,735.1618-2.3099,857.6003,93.5075,951.1169c18.4941,18.0205,47.2001,42.0517,82.6464,42.0517h272.7198
			c35.4453,0,64.1113-24.0312,82.6455-42.0517c95.8174-93.5166,101.5302-215.9551,16.1104-344.7735
			c-50.4062-76.0088-58.0293-223.3418-59.0976-260.2773"/>
		<path fill="#F4EDE9" d="M77.3766,606.3434C-8.0638,735.1618-2.3099,857.6003,93.5075,951.1169
			c18.4941,18.0205,47.2001,42.0517,82.6464,42.0517h272.7198c35.4453,0,64.1113-24.0312,82.6455-42.0517
			c95.8174-93.5166,88.0908-256.5586-17.0146-404.0352L77.3766,606.3434z"/>
		<path fill="#BCB3BE" d="M136.8649,239.9333c0-3.5137,0-12.8125,23.1377-17.7647c0.8008-0.1943,80.7138-28.3769,152.4902-28.3769
			c71.9815,0,151.791,28.2441,151.9356,28.2441c23.6923,6.3184,23.6923,13.5615,23.6923,17.8975v91.1631H136.8649V239.9333z"/>
		<polyline fill="#BCB3BE" points="269.8541,196.0309 269.8541,16.8279 355.1725,97.8611 355.1725,196.4832 		"/>
	</g>
	<g id="sugar-pot-line">
		<g>
			<path fill="#F4EDE9" d="M204.3258,616.5563c-29.6308,0-97.1123-7.3154-111.6611-9.1748
				c-9.2256-1.1816-15.7608-9.6064-14.5684-18.833c1.1914-9.2158,9.5957-15.7607,18.8428-14.5586
				c16.7266,2.1475,80.8584,8.8975,107.3867,8.8975c27.6787,0,66.3506-7.7256,114.9688-22.9737l5.9179-1.8691
				c52.0694-16.46,149.0176-47.0869,209.2041-4.9111c7.6231,5.332,9.4522,15.833,4.1299,23.4355
				c-5.3623,7.624-15.8222,9.4727-23.4658,4.1299c-46.543-32.6104-133.1953-5.2402-179.7178,9.4424l-5.9795,1.8896
				C276.7379,608.5319,235.8473,616.5563,204.3258,616.5563L204.3258,616.5563z"/>
		</g>
		<g>
			<path fill="#E6DBD5" d="M448.8737,1009.9977H176.1539c-41.5498,0-73.7695-26.7334-94.4004-46.8301
				C-20.516,863.3532-27.0502,733.3337,63.3629,597.0349c48.7207-73.4404,55.4395-222.3545,56.3028-251.4619l33.6582,0.9863
				c-1.2735,43.1416-9.4727,190.0528-61.9121,269.0928C10.944,736.9606,15.8756,851.8162,105.2614,939.0641
				c16.4179,15.9981,41.6308,37.2657,70.8925,37.2657h272.7198c29.1992,0,54.4531-21.2784,70.8916-37.2852
				c89.3652-87.209,94.2763-202.0742,13.8496-323.3926c-52.4395-79.0498-60.6377-225.9512-61.9326-269.0928l33.6787-0.9863
				c0.8427,29.1074,7.583,178.0117,56.3027,251.4619c90.3926,136.3184,83.8584,266.3496-18.3906,366.1328
				C522.5807,983.2751,490.3405,1009.9977,448.8737,1009.9977L448.8737,1009.9977z"/>
		</g>
		<g>
			<path fill="#8C7C8E" d="M372.0006,196.4832h-33.6582v-91.3994l-51.6582-49.0489v139.9961H253.025V16.8279
				c0-6.7295,4.0069-12.8115,10.1924-15.4629c6.1856-2.6504,13.3565-1.376,18.2266,3.2578l85.3174,81.0322
				c3.3496,3.1749,5.2392,7.5928,5.2392,12.2061V196.4832L372.0006,196.4832z"/>
		</g>
		<g>
			<path fill="#8C7C8E" d="M504.9703,347.9255H120.0358V239.9333c0-12.0625,6.3291-27.7813,36.4531-34.2237
				c19.0889-6.5341,90.2285-28.747,156.0039-28.747c68.0566,0,142.3398,24.042,156.8057,28.9531
				c16.7265,4.5205,35.6718,12.5234,35.6718,34.0176V347.9255L504.9703,347.9255z M153.694,314.2575h317.5976v-71.9717
				c-1.5615-0.8115-4.3564-2.0234-9.1445-3.4111h-0.4922l-3.124-1.0576c-13.3359-4.5313-83.1397-27.1856-146.0381-27.1856
				c-62.2412,0-132.8662,22.7061-146.4082,27.2568l-1.9932,0.6172c-5.8154,1.2432-8.8769,2.5371-10.3974,3.3389V314.2575
				L153.694,314.2575z"/>
		</g>
		<g>
			<path fill="#FFFFFF" d="M208.9694,918.0847c-0.6983,0-1.418-0.041-2.1573-0.1339
				C114.775,906.0944,95.3366,827.1774,97.9254,787.1091c0.5957-9.2676,8.6309-16.2647,17.8975-15.71
				c9.2471,0.5967,16.2949,8.5791,15.7197,17.8369c-0.4932,8.6816-2.4453,84.7617,79.5635,95.3242
				c9.2265,1.1817,15.7402,9.627,14.5488,18.8526C224.566,911.9001,217.3326,918.0847,208.9694,918.0847L208.9694,918.0847z"/>
		</g>
	</g>
</g>
</svg>
