<?xml version="1.0" encoding="UTF-8" standalone="no"?>
<svg width="625px" height="1010px" viewBox="0 0 625 1010" version="1.1" xmlns="http://www.w3.org/2000/svg" xmlns:xlink="http://www.w3.org/1999/xlink">
    <!-- Generator: Sketch 3.8.2 (29753) - http://www.bohemiancoding.com/sketch -->
    <title>syrup</title>
    <desc>Created with Sketch.</desc>
    <defs></defs>
    <g id="Page-1" stroke="none" stroke-width="1" fill="none" fill-rule="evenodd">
        <g id="syrup">
            <g id="sugar-pot">
                <g id="sugar-pot-sugar-pot">
                    <g id="sugar-pot-color" transform="translate(17.000000, 16.000000)">
                        <path d="M119.4948,330.0661 C118.4059,366.9714 110.8854,514.2116 60.3766,590.3434 C-25.0638,719.1618 -19.3099,841.6003 76.5075,935.1169 C95.0016,953.1374 123.7076,977.1686 159.1539,977.1686 L431.8737,977.1686 C467.319,977.1686 495.985,953.1374 514.5192,935.1169 C610.3366,841.6003 616.0494,719.1618 530.6296,590.3434 C480.2234,514.3346 472.6003,367.0016 471.532,330.0661" id="Shape" fill="#FCF9F8"></path>
                        <path d="M60.3766,590.3434 C-25.0638,719.1618 -19.3099,841.6003 76.5075,935.1169 C95.0016,953.1374 123.7076,977.1686 159.1539,977.1686 L431.8737,977.1686 C467.319,977.1686 495.985,953.1374 514.5192,935.1169 C610.3366,841.6003 602.61,678.5583 497.5046,531.0817 L60.3766,590.3434 L60.3766,590.3434 Z" id="Shape" fill="#D89F78"></path>
                        <path d="M119.8649,223.9333 C119.8649,220.4196 119.8649,211.1208 143.0026,206.1686 C143.8034,205.9743 223.7164,177.7917 295.4928,177.7917 C367.4743,177.7917 447.2838,206.0358 447.4284,206.0358 C471.1207,212.3542 471.1207,219.5973 471.1207,223.9333 L471.1207,315.0964 L119.8649,315.0964 L119.8649,223.9333 L119.8649,223.9333 Z" id="Shape" fill="#BCB3BE"></path>
                        <polyline id="Shape" fill="#BCB3BE" points="252.8541 180.0309 252.8541 0.8279 338.1725 81.8611 338.1725 180.4832"></polyline>
                    </g>
                    <g id="sugar-pot-line">
                        <path d="M204.3258,616.5563 C174.695,616.5563 107.2135,609.2409 92.6647,607.3815 C83.4391,606.1999 76.9039,597.7751 78.0963,588.5485 C79.2877,579.3327 87.692,572.7878 96.9391,573.9899 C113.6657,576.1374 177.7975,582.8874 204.3258,582.8874 C232.0045,582.8874 270.6764,575.1618 319.2946,559.9137 L325.2125,558.0446 C377.2819,541.5846 474.2301,510.9577 534.4166,553.1335 C542.0397,558.4655 543.8688,568.9665 538.5465,576.569 C533.1842,584.193 522.7243,586.0417 515.0807,580.6989 C468.5377,548.0885 381.8854,575.4587 335.3629,590.1413 L329.3834,592.0309 C276.7379,608.5319 235.8473,616.5563 204.3258,616.5563 L204.3258,616.5563 L204.3258,616.5563 Z" id="Shape" fill="#D89F78"></path>
                        <path d="M448.8737,1009.9977 L176.1539,1009.9977 C134.6041,1009.9977 102.3844,983.2643 81.7535,963.1676 C-20.516,863.3532 -27.0502,733.3337 63.3629,597.0349 C112.0836,523.5945 118.8024,374.6804 119.6657,345.573 L153.3239,346.5593 C152.0504,389.7009 143.8512,536.6121 91.4118,615.6521 C10.944,736.9606 15.8756,851.8162 105.2614,939.0641 C121.6793,955.0622 146.8922,976.3298 176.1539,976.3298 L448.8737,976.3298 C478.0729,976.3298 503.3268,955.0514 519.7653,939.0446 C609.1305,851.8356 614.0416,736.9704 533.6149,615.652 C481.1754,536.6022 472.9772,389.7008 471.6823,346.5592 L505.361,345.5729 C506.2037,374.6803 512.944,523.5846 561.6637,597.0348 C652.0563,733.3532 645.5221,863.3844 543.2731,963.1676 C522.5807,983.2751 490.3405,1009.9977 448.8737,1009.9977 L448.8737,1009.9977 L448.8737,1009.9977 Z" id="Shape" fill="#E6DBD5"></path>
                        <path d="M372.0006,196.4832 L338.3424,196.4832 L338.3424,105.0838 L286.6842,56.0349 L286.6842,196.031 L253.025,196.031 L253.025,16.8279 C253.025,10.0984 257.0319,4.0164 263.2174,1.365 C269.403,-1.2854 276.5739,-0.011 281.444,4.6228 L366.7614,85.655 C370.111,88.8299 372.0006,93.2478 372.0006,97.8611 L372.0006,196.4832 L372.0006,196.4832 L372.0006,196.4832 Z" id="Shape" fill="#8C7C8E"></path>
                        <path d="M504.9703,347.9255 L120.0358,347.9255 L120.0358,239.9333 C120.0358,227.8708 126.3649,212.152 156.4889,205.7096 C175.5778,199.1755 246.7174,176.9626 312.4928,176.9626 C380.5494,176.9626 454.8326,201.0046 469.2985,205.9157 C486.025,210.4362 504.9703,218.4391 504.9703,239.9333 L504.9703,347.9255 L504.9703,347.9255 L504.9703,347.9255 Z M153.694,314.2575 L471.2916,314.2575 L471.2916,242.2858 C469.7301,241.4743 466.9352,240.2624 462.1471,238.8747 L461.6549,238.8747 L458.5309,237.8171 C445.195,233.2858 375.3912,210.6315 312.4928,210.6315 C250.2516,210.6315 179.6266,233.3376 166.0846,237.8883 L164.0914,238.5055 C158.276,239.7487 155.2145,241.0426 153.694,241.8444 L153.694,314.2575 L153.694,314.2575 L153.694,314.2575 Z" id="Shape" fill="#8C7C8E"></path>
                        <path d="M208.9694,918.0847 C208.2711,918.0847 207.5514,918.0437 206.8121,917.9508 C114.775,906.0944 95.3366,827.1774 97.9254,787.1091 C98.5211,777.8415 106.5563,770.8444 115.8229,771.3991 C125.07,771.9958 132.1178,779.9782 131.5426,789.236 C131.0494,797.9176 129.0973,873.9977 211.1061,884.5602 C220.3326,885.7419 226.8463,894.1872 225.6549,903.4128 C224.566,911.9001 217.3326,918.0847 208.9694,918.0847 L208.9694,918.0847 L208.9694,918.0847 Z" id="Shape" fill="#FFFFFF" opacity="0.280783582"></path>
                    </g>
                </g>
            </g>
        </g>
    </g>
</svg>